<svg xmlns="http://www.w3.org/2000/svg" width="330" height="64" viewBox="0 0 330 64">
  <g id="Grupo_1042697" data-name="Grupo 1042697" transform="translate(-843 -12646.367)">
    <path id="Trazado_770152" data-name="Trazado 770152" d="M5,0H325a5,5,0,0,1,5,5V59a5,5,0,0,1-5,5H5a5,5,0,0,1-5-5V5A5,5,0,0,1,5,0Z" transform="translate(843 12646.367)" fill="#fff"/>
    <path id="Trazado_770153" data-name="Trazado 770153" d="M46.848,10.383a12.079,12.079,0,0,1,.473-3.391,9.85,9.85,0,0,1,1.41-2.953,6,6,0,0,1,1.945-1.875l.3.953A6.222,6.222,0,0,0,49.1,5.789a11.583,11.583,0,0,0-.8,4.023l-.008.664a11.643,11.643,0,0,0,1.1,5.234,6.252,6.252,0,0,0,1.578,2.078l-.3.883a6.192,6.192,0,0,1-1.984-1.937A10.859,10.859,0,0,1,46.848,10.383Zm12.664.484a5.062,5.062,0,0,1-.883,3.109,2.829,2.829,0,0,1-2.391,1.18,3.1,3.1,0,0,1-2.422-.977v4.07H52.371V6.547h1.32l.07.938a2.977,2.977,0,0,1,2.453-1.094,2.882,2.882,0,0,1,2.41,1.148,5.117,5.117,0,0,1,.887,3.2ZM58.066,10.7a3.735,3.735,0,0,0-.609-2.258,1.963,1.963,0,0,0-1.672-.828,2.125,2.125,0,0,0-1.969,1.164V12.82A2.129,2.129,0,0,0,55.8,13.977a1.954,1.954,0,0,0,1.652-.824A4.077,4.077,0,0,0,58.066,10.7ZM62.793,7.57a3.073,3.073,0,0,1,2.5-1.18q2.68,0,2.7,3.023V15H66.551V9.406a1.946,1.946,0,0,0-.418-1.352,1.675,1.675,0,0,0-1.277-.437,2.086,2.086,0,0,0-1.234.375,2.546,2.546,0,0,0-.828.984V15H61.348V3h1.445Zm14.336,3.188H73.316V9.578h3.813Zm12.508.109a5.062,5.062,0,0,1-.883,3.109,2.829,2.829,0,0,1-2.391,1.18,3.1,3.1,0,0,1-2.422-.977v4.07H82.5V6.547h1.32l.07.938A2.977,2.977,0,0,1,86.34,6.391a2.882,2.882,0,0,1,2.41,1.148,5.117,5.117,0,0,1,.887,3.2ZM88.191,10.7a3.735,3.735,0,0,0-.609-2.258,1.963,1.963,0,0,0-1.672-.828,2.125,2.125,0,0,0-1.969,1.164V12.82a2.129,2.129,0,0,0,1.984,1.156,1.954,1.954,0,0,0,1.652-.824A4.077,4.077,0,0,0,88.191,10.7Zm8.2,2.055a1.064,1.064,0,0,0-.441-.91,4.249,4.249,0,0,0-1.539-.559,7.277,7.277,0,0,1-1.742-.562,2.479,2.479,0,0,1-.953-.781,1.869,1.869,0,0,1-.309-1.078,2.193,2.193,0,0,1,.879-1.758,3.432,3.432,0,0,1,2.246-.719,3.532,3.532,0,0,1,2.332.742,2.357,2.357,0,0,1,.895,1.9H96.309a1.3,1.3,0,0,0-.5-1.023,1.888,1.888,0,0,0-1.27-.43,1.976,1.976,0,0,0-1.234.344,1.082,1.082,0,0,0-.445.9.877.877,0,0,0,.414.789,5.1,5.1,0,0,0,1.5.508,7.8,7.8,0,0,1,1.754.578,2.558,2.558,0,0,1,1,.809,1.988,1.988,0,0,1,.324,1.152,2.163,2.163,0,0,1-.906,1.816,3.8,3.8,0,0,1-2.352.684,4.257,4.257,0,0,1-1.8-.359,2.922,2.922,0,0,1-1.223-1,2.42,2.42,0,0,1-.441-1.395h1.445a1.5,1.5,0,0,0,.582,1.152,2.258,2.258,0,0,0,1.434.426,2.331,2.331,0,0,0,1.316-.332A1.02,1.02,0,0,0,96.395,12.758Zm6.664-2.3a12.084,12.084,0,0,1-.457,3.34,9.876,9.876,0,0,1-1.4,2.949,6.127,6.127,0,0,1-1.973,1.922l-.3-.883a6.281,6.281,0,0,0,1.934-2.863,12.387,12.387,0,0,0,.746-4.309v-.25a12.861,12.861,0,0,0-.344-3.051,10.3,10.3,0,0,0-.957-2.527,5.838,5.838,0,0,0-1.379-1.742l.3-.883A6.1,6.1,0,0,1,101.2,4.07a9.9,9.9,0,0,1,1.4,2.945A12.363,12.363,0,0,1,103.059,10.461Z" transform="translate(931.849 12655.367)" fill="#12263f"/>
    <path id="Trazado_770154" data-name="Trazado 770154" d="M74.34,10.867a5.062,5.062,0,0,1-.883,3.109,2.829,2.829,0,0,1-2.391,1.18,3.1,3.1,0,0,1-2.422-.977v4.07H67.2V6.547h1.32l.07.938a2.977,2.977,0,0,1,2.453-1.094,2.882,2.882,0,0,1,2.41,1.148,5.117,5.117,0,0,1,.887,3.2ZM72.895,10.7a3.735,3.735,0,0,0-.609-2.258,1.963,1.963,0,0,0-1.672-.828,2.125,2.125,0,0,0-1.969,1.164V12.82a2.129,2.129,0,0,0,1.984,1.156,1.954,1.954,0,0,0,1.652-.824A4.077,4.077,0,0,0,72.895,10.7ZM77.621,7.57a3.073,3.073,0,0,1,2.5-1.18q2.68,0,2.7,3.023V15H81.379V9.406a1.946,1.946,0,0,0-.418-1.352,1.675,1.675,0,0,0-1.277-.437,2.086,2.086,0,0,0-1.234.375,2.546,2.546,0,0,0-.828.984V15H76.176V3h1.445Z" transform="translate(931.849 12681.367)" fill="#12263f"/>
    <path id="Trazado_770155" data-name="Trazado 770155" d="M.82,7.813a2.308,2.308,0,0,1,.652-1.687,2.247,2.247,0,0,1,1.676-.664,2.234,2.234,0,0,1,1.684.668,2.388,2.388,0,0,1,.645,1.73v.555A2.278,2.278,0,0,1,4.824,10.1a2.249,2.249,0,0,1-1.66.652,2.3,2.3,0,0,1-1.68-.652A2.326,2.326,0,0,1,.82,8.359Zm1.078.6a1.478,1.478,0,0,0,.344,1.006,1.16,1.16,0,0,0,.922.4,1.137,1.137,0,0,0,.895-.384A1.527,1.527,0,0,0,4.4,8.38V7.808A1.515,1.515,0,0,0,4.063,6.8a1.132,1.132,0,0,0-.914-.4,1.132,1.132,0,0,0-.914.4A1.563,1.563,0,0,0,1.9,7.839Zm4.461,5.8a2.3,2.3,0,0,1,.652-1.684,2.254,2.254,0,0,1,1.676-.66,2.274,2.274,0,0,1,1.68.656,2.355,2.355,0,0,1,.656,1.742v.555a2.3,2.3,0,0,1-.652,1.684,2.244,2.244,0,0,1-1.668.66,2.3,2.3,0,0,1-1.68-.652,2.326,2.326,0,0,1-.664-1.738Zm1.078.606a1.49,1.49,0,0,0,.344,1.014,1.16,1.16,0,0,0,.922.4,1.129,1.129,0,0,0,.9-.388,1.553,1.553,0,0,0,.336-1.053v-.579A1.485,1.485,0,0,0,9.6,13.2a1.249,1.249,0,0,0-1.812,0,1.508,1.508,0,0,0-.348,1.045ZM3.492,16.141l-.82-.516L8.227,6.734l.82.516ZM20.672,17H19.2l.914-5.258H14.563L13.648,17H12.18L14.156,5.625h1.469l-.852,4.891H20.32l.852-4.891h1.477Zm13.813-6.359H27.969V9.383h6.516Zm0,3.242H27.969v-1.25h6.516Z" transform="translate(903 12667.367)" fill="#12263f"/>
    <path id="Trazado_770156" data-name="Trazado 770156" d="M1.125,14.242a.905.905,0,0,1,.223-.625.848.848,0,0,1,.668-.25.874.874,0,0,1,.676.25.887.887,0,0,1,.23.625.839.839,0,0,1-.23.6.89.89,0,0,1-.676.242.863.863,0,0,1-.668-.242A.855.855,0,0,1,1.125,14.242ZM9.906,15H8.453V5.367L5.539,6.438V5.125L9.68,3.57h.227Zm11.367-4.852a6.61,6.61,0,0,1-.867,3.773A3.084,3.084,0,0,1,17.7,15.156,3.107,3.107,0,0,1,15,13.949a6.274,6.274,0,0,1-.906-3.605V8.414a6.463,6.463,0,0,1,.867-3.727A3.108,3.108,0,0,1,17.68,3.469a3.136,3.136,0,0,1,2.7,1.176,6.237,6.237,0,0,1,.891,3.629ZM19.828,8.172A5.3,5.3,0,0,0,19.313,5.5a1.775,1.775,0,0,0-1.633-.84,1.751,1.751,0,0,0-1.617.836,5.171,5.171,0,0,0-.523,2.57v2.313a5.381,5.381,0,0,0,.535,2.723,1.771,1.771,0,0,0,1.621.879,1.747,1.747,0,0,0,1.59-.828,5.186,5.186,0,0,0,.543-2.609Zm10.43,1.977a6.61,6.61,0,0,1-.867,3.773,3.084,3.084,0,0,1-2.711,1.234,3.107,3.107,0,0,1-2.7-1.207,6.274,6.274,0,0,1-.906-3.605V8.414a6.463,6.463,0,0,1,.867-3.727,3.108,3.108,0,0,1,2.719-1.219,3.136,3.136,0,0,1,2.7,1.176,6.237,6.237,0,0,1,.891,3.629ZM28.813,8.172A5.3,5.3,0,0,0,28.3,5.5a1.775,1.775,0,0,0-1.633-.84,1.751,1.751,0,0,0-1.617.836,5.171,5.171,0,0,0-.523,2.57v2.313a5.381,5.381,0,0,0,.535,2.723,1.771,1.771,0,0,0,1.621.879,1.747,1.747,0,0,0,1.59-.828,5.186,5.186,0,0,0,.543-2.609Z" transform="translate(1073 12667.367)" fill="#12263f"/>
    <path id="Trazado_736187" data-name="Trazado 736187" d="M0,0V107.243" transform="translate(1062.137 12681.367) rotate(90)" fill="none" stroke="#12263f" stroke-width="1"/>
  </g>
</svg>
