<svg xmlns="http://www.w3.org/2000/svg" width="23.891" height="34.372" viewBox="0 0 23.891 34.372">
  <g id="solvente" transform="translate(-91.27 -7)">
    <g id="Grupo_1023722" data-name="Grupo 1023722" transform="translate(91.77 7.5)">
      <path id="Trazado_738434" data-name="Trazado 738434" d="M107.968,43.451V39.463h-9.5v3.988a.825.825,0,0,1-.716.8A6.918,6.918,0,0,0,91.77,51V69.239A1.4,1.4,0,0,0,93.2,70.612h20.034a1.4,1.4,0,0,0,1.429-1.373V51a6.918,6.918,0,0,0-5.977-6.742A.825.825,0,0,1,107.968,43.451Z" transform="translate(-91.77 -37.241)" fill="#e5eef9"/>
      <path id="Trazado_738435" data-name="Trazado 738435" d="M298.85,44.254a.824.824,0,0,1-.715-.8V39.463h-1.947v4.992a.824.824,0,0,0,.715.8A6.707,6.707,0,0,1,302.866,52V69.239a1.4,1.4,0,0,1-1.426,1.373h1.947a1.4,1.4,0,0,0,1.426-1.373V51A6.912,6.912,0,0,0,298.85,44.254Z" transform="translate(-281.922 -37.241)" fill="#c4e2ff"/>
      <path id="Trazado_738436" data-name="Trazado 738436" d="M157.147,193.629h17.281V176.161a7.064,7.064,0,0,0-.514-2.651H157.147a1.087,1.087,0,0,0-1.087,1.087v17.945A1.087,1.087,0,0,0,157.147,193.629Z" transform="translate(-151.537 -163.153)" fill="#60b7ff"/>
      <path id="Trazado_738437" data-name="Trazado 738437" d="M379.331,193.629h1.947V176.161a7.063,7.063,0,0,0-.514-2.651h-2.4a7.215,7.215,0,0,1,.964,3.694v16.425Z" transform="translate(-358.386 -163.153)" fill="#14a1f7"/>
      <path id="Trazado_738438" data-name="Trazado 738438" d="M174.428,176.161a7.064,7.064,0,0,0-.514-2.651H157.147a1.087,1.087,0,0,0-1.087,1.087v5.585h10.62a.713.713,0,0,1,.606.332,3.392,3.392,0,0,0,5.755,0,.713.713,0,0,1,.606-.332h.783v-4.021Z" transform="translate(-151.537 -162.494)" fill="#ff8b5b"/>
      <path id="Trazado_738439" data-name="Trazado 738439" d="M380.5,180.183h.783v-4.021a7.065,7.065,0,0,0-.514-2.651h-2.4a7.215,7.215,0,0,1,.964,3.694v3.987a3.409,3.409,0,0,0,.559-.678A.713.713,0,0,1,380.5,180.183Z" transform="translate(-358.386 -162.477)" fill="#ff6e33"/>
      <path id="Trazado_738440" data-name="Trazado 738440" d="M340.99,213.387a.345.345,0,0,0-.559,0,5.451,5.451,0,0,0-1.078,2.1,1.358,1.358,0,1,0,2.716,0A5.45,5.45,0,0,0,340.99,213.387Z" transform="translate(-322.085 -199.486)" fill="#e5eef9"/>
      <path id="Trazado_738441" data-name="Trazado 738441" d="M196.181,311.185v6.965a.424.424,0,0,0,.424.424h6.965a.424.424,0,0,0,.424-.424v-6.965a.424.424,0,0,0-.424-.424H196.6A.424.424,0,0,0,196.181,311.185Z" transform="translate(-188.896 -290.609)" fill="#e5eef9"/>
      <path id="Trazado_738442" data-name="Trazado 738442" d="M162.934,11.07V8.2a.7.7,0,0,1,.7-.7h11.6a.7.7,0,0,1,.7.7V11.07a.7.7,0,0,1-.7.7h-11.6A.7.7,0,0,1,162.934,11.07Z" transform="translate(-157.986 -7.5)" fill="#537983"/>
      <path id="Trazado_738443" data-name="Trazado 738443" d="M313.943,7.5h-1.877a.7.7,0,0,1,.7.7V11.07a.7.7,0,0,1-.7.7h1.877a.7.7,0,0,0,.7-.7V8.2A.7.7,0,0,0,313.943,7.5Z" transform="translate(-296.708 -7.5)" fill="#466470"/>
    </g>
    <g id="Grupo_1023725" data-name="Grupo 1023725" transform="translate(91.77 7.5)">
      <path id="Trazado_738444" data-name="Trazado 738444" d="M173.914,173.511H157.147a1.087,1.087,0,0,0-1.087,1.087v17.945a1.087,1.087,0,0,0,1.087,1.087h17.281" transform="translate(-151.537 -163.154)" fill="none" stroke="#000" stroke-linecap="round" stroke-linejoin="round" stroke-miterlimit="10" stroke-width="1"/>
      <path id="Trazado_738445" data-name="Trazado 738445" d="M340.99,213.387a.345.345,0,0,0-.559,0,5.451,5.451,0,0,0-1.078,2.1,1.358,1.358,0,1,0,2.716,0A5.45,5.45,0,0,0,340.99,213.387Z" transform="translate(-322.085 -199.486)" fill="none" stroke="#000" stroke-linecap="round" stroke-linejoin="round" stroke-miterlimit="10" stroke-width="1"/>
      <g id="Grupo_1023723" data-name="Grupo 1023723" transform="translate(9.221 13.171)">
        <line id="Línea_843" data-name="Línea 843" x2="4.084" fill="none" stroke="#000" stroke-linecap="round" stroke-linejoin="round" stroke-miterlimit="10" stroke-width="1"/>
        <line id="Línea_844" data-name="Línea 844" x2="4.084" transform="translate(0 2.407)" fill="none" stroke="#000" stroke-linecap="round" stroke-linejoin="round" stroke-miterlimit="10" stroke-width="1"/>
      </g>
      <path id="Trazado_738447" data-name="Trazado 738447" d="M196.181,311.185v6.965a.424.424,0,0,0,.424.424h6.965a.424.424,0,0,0,.424-.424v-6.965a.424.424,0,0,0-.424-.424H196.6A.424.424,0,0,0,196.181,311.185Z" transform="translate(-188.896 -290.609)" fill="none" stroke="#000" stroke-linecap="round" stroke-linejoin="round" stroke-miterlimit="10" stroke-width="1"/>
      <path id="Trazado_738448" data-name="Trazado 738448" d="M156.061,269.466h10.62a.713.713,0,0,1,.606.332,3.392,3.392,0,0,0,5.755,0,.713.713,0,0,1,.606-.332h.783" transform="translate(-151.538 -251.913)" fill="none" stroke="#000" stroke-linecap="round" stroke-linejoin="round" stroke-miterlimit="10" stroke-width="1"/>
      <path id="Trazado_738449" data-name="Trazado 738449" d="M114.661,91v5.588a1.4,1.4,0,0,1-1.429,1.37H93.2a1.4,1.4,0,0,1-1.429-1.37V78.39a6.907,6.907,0,0,1,5.977-6.725.823.823,0,0,0,.716-.8V68.85" transform="translate(-91.77 -64.584)" fill="none" stroke="#000" stroke-linecap="round" stroke-linejoin="round" stroke-miterlimit="10" stroke-width="1"/>
      <path id="Trazado_738450" data-name="Trazado 738450" d="M324.19,68.85v2.1a.845.845,0,0,0,.715.834,7.09,7.09,0,0,1,5.963,7V89.467" transform="translate(-307.977 -64.584)" fill="none" stroke="#000" stroke-linecap="round" stroke-linejoin="round" stroke-miterlimit="10" stroke-width="1"/>
      <path id="Trazado_738451" data-name="Trazado 738451" d="M168.235,7.5h7a.7.7,0,0,1,.7.7V11.07a.7.7,0,0,1-.7.7h-11.6a.7.7,0,0,1-.7-.7V8.2a.7.7,0,0,1,.7-.7h2.159" transform="translate(-157.986 -7.5)" fill="none" stroke="#000" stroke-linecap="round" stroke-linejoin="round" stroke-miterlimit="10" stroke-width="1"/>
      <path id="Trazado_738452" data-name="Trazado 738452" d="M3.059-2.893H1.992V0H1.135V-2.893H.088v-.662H3.059Z" transform="translate(9.864 25.595)"/>
    </g>
  </g>
</svg>
