<svg xmlns="http://www.w3.org/2000/svg" xmlns:xlink="http://www.w3.org/1999/xlink" width="77" height="77" viewBox="0 0 77 77">
  <defs>
    <filter id="Elipse_7698" x="0" y="0" width="77" height="77" filterUnits="userSpaceOnUse">
      <feOffset dy="3" input="SourceAlpha"/>
      <feGaussianBlur stdDeviation="3" result="blur"/>
      <feFlood flood-opacity="0.161"/>
      <feComposite operator="in" in2="blur"/>
      <feComposite in="SourceGraphic"/>
    </filter>
  </defs>
  <g id="Grupo_1042418" data-name="Grupo 1042418" transform="translate(-917 -13533.364)">
    <g transform="matrix(1, 0, 0, 1, 917, 13533.36)" filter="url(#Elipse_7698)">
      <circle id="Elipse_7698-2" data-name="Elipse 7698" cx="29.5" cy="29.5" r="29.5" transform="translate(9 6)" fill="#0ce6ea"/>
    </g>
    <g id="pagina-rota" transform="translate(922.005 13536.861)">
      <path id="Trazado_746585" data-name="Trazado 746585" d="M4.5,15.157a1,1,0,0,0,1.932-.518l-.37-1.382a1.709,1.709,0,0,1,1.213-2.094L20.333,7.655l3.327,3.806-2.043,6.882a1.061,1.061,0,0,0,.135.829.94.94,0,0,0,.072.124l7,7.852-2.009,10.8a1,1,0,1,0,1.966.366l2.1-11.286a1.2,1.2,0,0,0-.236-.848l-6.952-7.8L25.733,11.5a1,1,0,0,0-.206-.943l-4.1-4.69a1,1,0,0,0-1.012-.308L6.762,9.231a3.719,3.719,0,0,0-2.632,4.546l.37,1.381Z" fill="#12263f"/>
      <path id="Trazado_746586" data-name="Trazado 746586" d="M31.133,42l2.058,1.592-1.39,9.5L19.4,56.412A1.7,1.7,0,0,1,17.3,55.2l-9.58-35.73a1,1,0,0,0-1.932.518l9.579,35.725a3.721,3.721,0,0,0,4.546,2.632l13.04-3.49a1,1,0,0,0,.731-.821l1.57-10.73a1,1,0,0,0-.377-.936l-2.52-1.95A1,1,0,0,0,31.133,42Z" fill="#12263f"/>
      <path id="Trazado_746587" data-name="Trazado 746587" d="M42.208,30.643l-4.737,9.916a1,1,0,0,0,.105,1.035l4.6,6.067-4.065,9.416a1,1,0,0,0,.918,1.4h17.26A3.718,3.718,0,0,0,60,54.759V53.84a1,1,0,0,0-2,0v.919a1.716,1.716,0,0,1-1.714,1.714H40.545l3.694-8.555a1,1,0,0,0-.121-1l-4.58-6.046,4.686-9.808a1,1,0,0,0-.009-.881l-4.7-9.335,3.752-6.11a1,1,0,0,0,.046-.964L41.28,9.622h6.768v6.237a3.718,3.718,0,0,0,3.714,3.714H58V48.854a1,1,0,0,0,2,0V18.573a1.615,1.615,0,0,0-.1-.42,1,1,0,0,0-.194-.287L49.755,7.915a1.132,1.132,0,0,0-.707-.293H39.676a1,1,0,0,0-.9,1.44l2.5,5.1-3.756,6.116a1,1,0,0,0-.041.973l4.728,9.4Zm9.554-13.07a1.716,1.716,0,0,1-1.714-1.714V11.036l6.537,6.537Z" fill="#12263f"/>
      <path id="Trazado_746588" data-name="Trazado 746588" d="M91.07,168.481l2.414.913a.826.826,0,0,0,.585-1.546l-2.414-.913A.827.827,0,0,0,91.07,168.481Z" transform="translate(70.536 -184.025) rotate(42)" fill="#12263f"/>
      <path id="Trazado_746589" data-name="Trazado 746589" d="M127.865,119.855a.827.827,0,0,0,1.182-1.155l-1.877-1.923a.826.826,0,0,0-1.182,1.155Z" transform="translate(17.323 -171.705) rotate(42)" fill="#12263f"/>
      <path id="Trazado_746590" data-name="Trazado 746590" d="M180.18,89.063a.827.827,0,0,0,1.6-.421l-.668-2.536a.826.826,0,1,0-1.6.421Z" transform="translate(-36.645 -183.163) rotate(42)" fill="#12263f"/>
    </g>
  </g>
</svg>
