<svg xmlns="http://www.w3.org/2000/svg" width="71.427" height="80.458" viewBox="0 0 71.427 80.458">
  <g id="Grupo_1042167" data-name="Grupo 1042167" transform="translate(-234.287 -450.25)">
    <rect id="Rectángulo_348347" data-name="Rectángulo 348347" width="62" height="62" rx="10" transform="translate(239 459)" fill="#ff93a8"/>
    <g id="textil" transform="translate(235.037 451)">
      <g id="Grupo_1023330" data-name="Grupo 1023330" transform="translate(0 0)">
        <g id="Grupo_1023327" data-name="Grupo 1023327" transform="translate(0 0)">
          <path id="Trazado_737475" data-name="Trazado 737475" d="M247.412,39.043h-6.99V8.294a.794.794,0,0,1,.794-.794h5.4a.794.794,0,0,1,.794.794Z" transform="translate(-207.933 -7.5)" fill="#d5cfd6"/>
          <path id="Trazado_737476" data-name="Trazado 737476" d="M171.412,39.043h-6.99V8.294a.794.794,0,0,1,.794-.794h5.4a.794.794,0,0,1,.794.794Z" transform="translate(-144.007 -7.5)" fill="#d5cfd6"/>
          <path id="Trazado_737477" data-name="Trazado 737477" d="M79.246,108.32H37.511a1.589,1.589,0,0,1-1.589-1.589V62.437A1.589,1.589,0,0,1,38.2,61L80.028,80.985a1.589,1.589,0,0,1,.9,1.439l-.1,24.313A1.589,1.589,0,0,1,79.246,108.32Z" transform="translate(-35.922 -52.372)" fill="#f6f3f5"/>
          <rect id="Rectángulo_348343" data-name="Rectángulo 348343" width="6.99" height="5.719" transform="translate(20.415 6.275)" fill="#ffe589"/>
          <rect id="Rectángulo_348344" data-name="Rectángulo 348344" width="6.99" height="5.719" transform="translate(32.489 6.275)" fill="#ffe589"/>
        </g>
        <g id="Grupo_1023329" data-name="Grupo 1023329" transform="translate(32.344 34.213)">
          <g id="Grupo_1023328" data-name="Grupo 1023328">
            <path id="Trazado_737478" data-name="Trazado 737478" d="M241.859,479.64h26.177a2.348,2.348,0,0,0,2.348-2.348h0a2.348,2.348,0,0,0-2.348-2.348H241.859a2.348,2.348,0,0,0-2.348,2.348h0A2.348,2.348,0,0,0,241.859,479.64Z" transform="translate(-239.511 -434.894)" fill="#8d818c"/>
            <path id="Trazado_737479" data-name="Trazado 737479" d="M393.827,474.944h-4.766a2.348,2.348,0,0,1,2.348,2.348h0a2.348,2.348,0,0,1-2.348,2.348h4.766a2.348,2.348,0,0,0,2.348-2.348h0A2.348,2.348,0,0,0,393.827,474.944Z" transform="translate(-365.302 -434.894)" fill="#7b727b"/>
            <path id="Trazado_737480" data-name="Trazado 737480" d="M241.859,227.547h26.177a2.348,2.348,0,0,0,2.348-2.348h0a2.348,2.348,0,0,0-2.348-2.348H241.859a2.348,2.348,0,0,0-2.348,2.348h0A2.348,2.348,0,0,0,241.859,227.547Z" transform="translate(-239.511 -222.851)" fill="#8d818c"/>
            <path id="Trazado_737481" data-name="Trazado 737481" d="M393.827,222.851h-4.766a2.348,2.348,0,0,1,2.348,2.348h0a2.348,2.348,0,0,1-2.348,2.348h4.766a2.348,2.348,0,0,0,2.348-2.348h0A2.348,2.348,0,0,0,393.827,222.851Z" transform="translate(-365.302 -222.851)" fill="#7b727b"/>
            <rect id="Rectángulo_348345" data-name="Rectángulo 348345" width="24.328" height="35.354" transform="translate(27.6 40.05) rotate(180)" fill="#ff6167"/>
          </g>
        </g>
      </g>
      <g id="Grupo_1023336" data-name="Grupo 1023336" transform="translate(0 0)">
        <g id="Grupo_1023332" data-name="Grupo 1023332" transform="translate(0 0)">
          <path id="Trazado_737482" data-name="Trazado 737482" d="M240.422,30.564V8.294a.794.794,0,0,1,.794-.794h5.4a.794.794,0,0,1,.794.794V33.9" transform="translate(-207.933 -7.5)" fill="none" stroke="#000" stroke-linecap="round" stroke-linejoin="round" stroke-miterlimit="10" stroke-width="1.5"/>
          <path id="Trazado_737483" data-name="Trazado 737483" d="M164.422,24.8V8.294a.794.794,0,0,1,.794-.794h5.4a.794.794,0,0,1,.794.794V28.136" transform="translate(-144.007 -7.5)" fill="none" stroke="#000" stroke-linecap="round" stroke-linejoin="round" stroke-miterlimit="10" stroke-width="1.5"/>
          <path id="Trazado_737484" data-name="Trazado 737484" d="M35.922,71.251V62.437A1.589,1.589,0,0,1,38.2,61L80.028,80.985a1.589,1.589,0,0,1,.9,1.439l-.017,4.16" transform="translate(-35.922 -52.372)" fill="none" stroke="#000" stroke-linecap="round" stroke-linejoin="round" stroke-miterlimit="10" stroke-width="1.5"/>
          <path id="Trazado_737485" data-name="Trazado 737485" d="M71.538,190.319H37.511a1.589,1.589,0,0,1-1.589-1.589v-30.4" transform="translate(-35.922 -134.37)" fill="none" stroke="#000" stroke-linecap="round" stroke-linejoin="round" stroke-miterlimit="10" stroke-width="1.5"/>
          <g id="Grupo_1023331" data-name="Grupo 1023331" transform="translate(0.715 32.179)">
            <line id="Línea_770" data-name="Línea 770" x2="21.13" fill="none" stroke="#000" stroke-linecap="round" stroke-linejoin="round" stroke-miterlimit="10" stroke-width="1.5"/>
            <line id="Línea_771" data-name="Línea 771" x2="21.13" transform="translate(0 7.24)" fill="none" stroke="#000" stroke-linecap="round" stroke-linejoin="round" stroke-miterlimit="10" stroke-width="1.5"/>
            <line id="Línea_772" data-name="Línea 772" x2="21.13" transform="translate(0 14.48)" fill="none" stroke="#000" stroke-linecap="round" stroke-linejoin="round" stroke-miterlimit="10" stroke-width="1.5"/>
          </g>
          <line id="Línea_773" data-name="Línea 773" x1="6.99" transform="translate(20.415 11.995)" fill="none" stroke="#000" stroke-linecap="round" stroke-linejoin="round" stroke-miterlimit="10" stroke-width="1.5"/>
          <line id="Línea_774" data-name="Línea 774" x2="6.99" transform="translate(20.415 6.275)" fill="none" stroke="#000" stroke-linecap="round" stroke-linejoin="round" stroke-miterlimit="10" stroke-width="1.5"/>
          <line id="Línea_775" data-name="Línea 775" x1="6.99" transform="translate(32.489 11.995)" fill="none" stroke="#000" stroke-linecap="round" stroke-linejoin="round" stroke-miterlimit="10" stroke-width="1.5"/>
          <line id="Línea_776" data-name="Línea 776" x2="6.99" transform="translate(32.489 6.275)" fill="none" stroke="#000" stroke-linecap="round" stroke-linejoin="round" stroke-miterlimit="10" stroke-width="1.5"/>
        </g>
        <g id="Grupo_1023335" data-name="Grupo 1023335" transform="translate(32.344 34.213)">
          <g id="Grupo_1023333" data-name="Grupo 1023333">
            <path id="Trazado_737486" data-name="Trazado 737486" d="M264.038,479.64h4a2.348,2.348,0,0,0,2.348-2.348h0a2.348,2.348,0,0,0-2.348-2.348H241.859a2.348,2.348,0,0,0-2.348,2.348h0a2.348,2.348,0,0,0,2.348,2.348h17.433" transform="translate(-239.511 -434.894)" fill="none" stroke="#000" stroke-linecap="round" stroke-linejoin="round" stroke-miterlimit="10" stroke-width="1.5"/>
            <path id="Trazado_737487" data-name="Trazado 737487" d="M241.859,227.547h26.177a2.348,2.348,0,0,0,2.348-2.348h0a2.348,2.348,0,0,0-2.348-2.348H241.859a2.348,2.348,0,0,0-2.348,2.348h0A2.348,2.348,0,0,0,241.859,227.547Z" transform="translate(-239.511 -222.851)" fill="none" stroke="#000" stroke-linecap="round" stroke-linejoin="round" stroke-miterlimit="10" stroke-width="1.5"/>
            <rect id="Rectángulo_348346" data-name="Rectángulo 348346" width="24.328" height="35.354" transform="translate(27.6 40.05) rotate(180)" fill="none" stroke="#000" stroke-linecap="round" stroke-linejoin="round" stroke-miterlimit="10" stroke-width="1.5"/>
          </g>
          <g id="Grupo_1023334" data-name="Grupo 1023334" transform="translate(3.272 9.262)">
            <line id="Línea_777" data-name="Línea 777" x1="24.328" fill="none" stroke="#000" stroke-linecap="round" stroke-linejoin="round" stroke-miterlimit="10" stroke-width="1.5"/>
            <line id="Línea_778" data-name="Línea 778" x2="24.328" transform="translate(0 4.37)" fill="none" stroke="#000" stroke-linecap="round" stroke-linejoin="round" stroke-miterlimit="10" stroke-width="1.5"/>
            <line id="Línea_779" data-name="Línea 779" x1="24.328" transform="translate(0 8.74)" fill="none" stroke="#000" stroke-linecap="round" stroke-linejoin="round" stroke-miterlimit="10" stroke-width="1.5"/>
            <line id="Línea_780" data-name="Línea 780" x1="24.328" transform="translate(0 13.11)" fill="none" stroke="#000" stroke-linecap="round" stroke-linejoin="round" stroke-miterlimit="10" stroke-width="1.5"/>
            <line id="Línea_781" data-name="Línea 781" x2="24.328" transform="translate(0 17.481)" fill="none" stroke="#000" stroke-linecap="round" stroke-linejoin="round" stroke-miterlimit="10" stroke-width="1.5"/>
            <line id="Línea_782" data-name="Línea 782" x1="24.328" transform="translate(0 21.851)" fill="none" stroke="#000" stroke-linecap="round" stroke-linejoin="round" stroke-miterlimit="10" stroke-width="1.5"/>
            <path id="Trazado_737488" data-name="Trazado 737488" d="M260.108,379.613h26.533a3.889,3.889,0,0,0,3.889-3.889v-4.8a3.889,3.889,0,0,1,3.889-3.889h0" transform="translate(-260.108 -353.393)" fill="none" stroke="#000" stroke-linecap="round" stroke-linejoin="round" stroke-miterlimit="10" stroke-width="1.5"/>
          </g>
        </g>
      </g>
    </g>
  </g>
</svg>
