<svg xmlns="http://www.w3.org/2000/svg" xmlns:xlink="http://www.w3.org/1999/xlink" width="197" height="197" viewBox="0 0 197 197">
  <defs>
    <filter id="Trazado_113939" x="0" y="0" width="197" height="197" filterUnits="userSpaceOnUse">
      <feOffset input="SourceAlpha"/>
      <feGaussianBlur stdDeviation="20" result="blur"/>
      <feFlood flood-color="#402d27" flood-opacity="0.451"/>
      <feComposite operator="in" in2="blur"/>
      <feComposite in="SourceGraphic"/>
    </filter>
    <clipPath id="clip-path">
      <rect id="Rectángulo_355112" data-name="Rectángulo 355112" width="60.107" height="52.004" fill="none"/>
    </clipPath>
    <clipPath id="clip-path-2">
      <rect id="Rectángulo_355220" data-name="Rectángulo 355220" width="21.415" height="27.31" fill="none"/>
    </clipPath>
  </defs>
  <g id="Grupo_1042384" data-name="Grupo 1042384" transform="translate(11222 12501.416)">
    <g id="Grupo_1042312" data-name="Grupo 1042312" transform="translate(-12395.333 -12625.771)">
      <g transform="matrix(1, 0, 0, 1, 1173.33, 124.36)" filter="url(#Trazado_113939)">
        <path id="Trazado_113939-2" data-name="Trazado 113939" d="M38.5,0A38.5,38.5,0,1,1,0,38.5,38.5,38.5,0,0,1,38.5,0Z" transform="translate(60 60)" fill="#ea526f"/>
      </g>
      <g id="Grupo_1042259" data-name="Grupo 1042259" transform="translate(1243.181 195.316) rotate(3)">
        <g id="Grupo_1042259-2" data-name="Grupo 1042259" transform="translate(0 0)" clip-path="url(#clip-path)">
          <path id="Trazado_769089" data-name="Trazado 769089" d="M49.5,4.635H15.937v8.734H55.688c-.561-8.122-6.19-8.734-6.19-8.734" transform="translate(2.199 0.64)" fill="#6cc"/>
          <path id="Trazado_769090" data-name="Trazado 769090" d="M24.89,23.288H54.5V13.647c0-.469-.019-.909-.049-1.336H24.89Z" transform="translate(3.435 1.699)" fill="#399"/>
          <path id="Trazado_769091" data-name="Trazado 769091" d="M50.868,35.717H52.46a.628.628,0,0,0,.629-.628V26.075c0-.244,0-.479,0-.71a.628.628,0,0,0-.628-.626H50.868Z" transform="translate(7.019 3.414)" fill="#399"/>
          <rect id="Rectángulo_355096" data-name="Rectángulo 355096" width="10.188" height="10.977" transform="translate(18.135 14.01)" fill="#333"/>
          <rect id="Rectángulo_355097" data-name="Rectángulo 355097" width="0.996" height="10.977" transform="translate(18.135 14.01)" fill="#399"/>
          <path id="Trazado_769092" data-name="Trazado 769092" d="M15.936,12.311h10.19v6.037H21.04a5.1,5.1,0,0,1-5.1-5.1Z" transform="translate(2.199 1.699)" fill="#999"/>
          <path id="Trazado_769093" data-name="Trazado 769093" d="M19.35,12.311h.995l1.7,6.036H21.05Z" transform="translate(2.67 1.699)" fill="#fff"/>
          <path id="Trazado_769094" data-name="Trazado 769094" d="M20.716,12.311h.5l1.7,6.036h-.5Z" transform="translate(2.859 1.699)" fill="#fff"/>
          <path id="Trazado_769095" data-name="Trazado 769095" d="M22.167,21.652H19.389a.621.621,0,1,1,0-1.243h2.778a.621.621,0,1,1,0,1.243" transform="translate(2.59 2.816)" fill="#999"/>
          <path id="Trazado_769096" data-name="Trazado 769096" d="M22.213,20.993a.311.311,0,1,1-.312-.311.311.311,0,0,1,.312.311" transform="translate(2.979 2.854)" fill="#333"/>
          <path id="Trazado_769097" data-name="Trazado 769097" d="M22.049,20.946h-.137v-.137h-.058v.137h-.137V21h.137v.137h.058V21h.137Z" transform="translate(2.997 2.872)" fill="#999"/>
          <path id="Trazado_769098" data-name="Trazado 769098" d="M18.931,20.993a.311.311,0,1,0,.311-.311.31.31,0,0,0-.311.311" transform="translate(2.612 2.854)" fill="#333"/>
          <path id="Trazado_769099" data-name="Trazado 769099" d="M19.059,20.946h.135v-.137h.059v.137h.135V21h-.135v.137h-.059V21h-.135Z" transform="translate(2.63 2.872)" fill="#999"/>
          <path id="Trazado_769100" data-name="Trazado 769100" d="M30.485,8.03A2.488,2.488,0,1,1,28,5.541,2.488,2.488,0,0,1,30.485,8.03" transform="translate(3.52 0.765)" fill="#333"/>
          <path id="Trazado_769101" data-name="Trazado 769101" d="M30.207,8a2.24,2.24,0,1,1-2.24-2.24A2.24,2.24,0,0,1,30.207,8" transform="translate(3.55 0.795)" fill="#fff"/>
          <path id="Trazado_769102" data-name="Trazado 769102" d="M28.428,7.807a.653.653,0,1,1-.654-.653.654.654,0,0,1,.654.653" transform="translate(3.743 0.987)" fill="#333"/>
          <path id="Trazado_769103" data-name="Trazado 769103" d="M28.472,7.058a.257.257,0,0,0,.363,0l.448-.328a2.059,2.059,0,0,0-.485-.484l-.327.448a.257.257,0,0,0,0,.363" transform="translate(3.918 0.862)" fill="#6cc"/>
          <path id="Trazado_769104" data-name="Trazado 769104" d="M26.712,7.77a.257.257,0,0,0-.257-.257l-.546-.085a2.105,2.105,0,0,0-.034.343,2.131,2.131,0,0,0,.034.343l.546-.086a.257.257,0,0,0,.257-.256" transform="translate(3.57 1.025)" fill="#6cc"/>
          <path id="Trazado_769105" data-name="Trazado 769105" d="M28.781,7.77a.257.257,0,0,0,.257.256l.546.086a2.009,2.009,0,0,0,.035-.343,1.985,1.985,0,0,0-.035-.343l-.546.085a.257.257,0,0,0-.257.257" transform="translate(3.971 1.025)" fill="#6cc"/>
          <path id="Trazado_769106" data-name="Trazado 769106" d="M26.215,6.731l.448.328a.257.257,0,0,0,.363-.364L26.7,6.246a2.059,2.059,0,0,0-.484.485" transform="translate(3.617 0.862)" fill="#6cc"/>
          <path id="Trazado_769107" data-name="Trazado 769107" d="M27.737,6.744a.257.257,0,0,0,.257-.257l.085-.546a1.735,1.735,0,0,0-.685,0l.085.546a.258.258,0,0,0,.257.257" transform="translate(3.78 0.815)" fill="#6cc"/>
          <path id="Trazado_769108" data-name="Trazado 769108" d="M29.283,8.832,28.835,8.5a.257.257,0,0,0-.363.363l.327.448a2.081,2.081,0,0,0,.485-.484" transform="translate(3.918 1.163)" fill="#6cc"/>
          <path id="Trazado_769109" data-name="Trazado 769109" d="M26.7,9.315l.328-.448a.257.257,0,0,0-.363-.363l-.448.328a2.054,2.054,0,0,0,.484.484" transform="translate(3.617 1.163)" fill="#6cc"/>
          <path id="Trazado_769110" data-name="Trazado 769110" d="M28.08,9.617l-.085-.547a.257.257,0,1,0-.514,0l-.085.547a1.681,1.681,0,0,0,.685,0" transform="translate(3.78 1.216)" fill="#6cc"/>
          <path id="Trazado_769111" data-name="Trazado 769111" d="M35.841,8.03a2.488,2.488,0,1,1-2.488-2.489A2.488,2.488,0,0,1,35.841,8.03" transform="translate(4.259 0.765)" fill="#333"/>
          <path id="Trazado_769112" data-name="Trazado 769112" d="M35.563,8a2.24,2.24,0,1,1-2.24-2.24A2.24,2.24,0,0,1,35.563,8" transform="translate(4.289 0.795)" fill="#fff"/>
          <path id="Trazado_769113" data-name="Trazado 769113" d="M33.784,7.807a.653.653,0,1,1-.653-.653.653.653,0,0,1,.653.653" transform="translate(4.482 0.987)" fill="#333"/>
          <path id="Trazado_769114" data-name="Trazado 769114" d="M33.828,7.058a.257.257,0,0,0,.363,0l.448-.328a2.076,2.076,0,0,0-.484-.484l-.328.448a.257.257,0,0,0,0,.363" transform="translate(4.658 0.862)" fill="#6cc"/>
          <path id="Trazado_769115" data-name="Trazado 769115" d="M32.069,7.77a.257.257,0,0,0-.257-.257l-.546-.085a1.985,1.985,0,0,0-.034.343,2.008,2.008,0,0,0,.034.343l.546-.086a.257.257,0,0,0,.257-.256" transform="translate(4.31 1.025)" fill="#6cc"/>
          <path id="Trazado_769116" data-name="Trazado 769116" d="M34.138,7.77a.257.257,0,0,0,.257.256l.546.086a2.13,2.13,0,0,0,.034-.343,2.1,2.1,0,0,0-.034-.343l-.546.085a.257.257,0,0,0-.257.257" transform="translate(4.711 1.025)" fill="#6cc"/>
          <path id="Trazado_769117" data-name="Trazado 769117" d="M31.571,6.731l.448.328a.257.257,0,1,0,.363-.364l-.327-.448a2.043,2.043,0,0,0-.485.485" transform="translate(4.356 0.862)" fill="#6cc"/>
          <path id="Trazado_769118" data-name="Trazado 769118" d="M33.094,6.744a.257.257,0,0,0,.256-.257l.086-.546a2.131,2.131,0,0,0-.343-.034,2.1,2.1,0,0,0-.343.034l.085.546a.257.257,0,0,0,.257.257" transform="translate(4.519 0.815)" fill="#6cc"/>
          <path id="Trazado_769119" data-name="Trazado 769119" d="M34.64,8.832,34.192,8.5a.257.257,0,0,0-.363.363l.327.448a2.059,2.059,0,0,0,.485-.484" transform="translate(4.658 1.163)" fill="#6cc"/>
          <path id="Trazado_769120" data-name="Trazado 769120" d="M32.056,9.315l.328-.448a.257.257,0,1,0-.364-.363l-.448.328a2.059,2.059,0,0,0,.485.484" transform="translate(4.356 1.163)" fill="#6cc"/>
          <path id="Trazado_769121" data-name="Trazado 769121" d="M33.436,9.617l-.085-.547a.257.257,0,1,0-.514,0l-.085.547a1.681,1.681,0,0,0,.685,0" transform="translate(4.519 1.216)" fill="#6cc"/>
          <path id="Trazado_769122" data-name="Trazado 769122" d="M41.2,8.03a2.488,2.488,0,1,1-2.487-2.489A2.487,2.487,0,0,1,41.2,8.03" transform="translate(4.998 0.765)" fill="#333"/>
          <path id="Trazado_769123" data-name="Trazado 769123" d="M40.919,8a2.24,2.24,0,1,1-2.238-2.24A2.24,2.24,0,0,1,40.919,8" transform="translate(5.028 0.795)" fill="#fff"/>
          <path id="Trazado_769124" data-name="Trazado 769124" d="M39.141,7.807a.653.653,0,1,1-.653-.653.653.653,0,0,1,.653.653" transform="translate(5.221 0.987)" fill="#333"/>
          <path id="Trazado_769125" data-name="Trazado 769125" d="M39.185,7.058a.258.258,0,0,0,.364,0L40,6.731a2.054,2.054,0,0,0-.484-.484l-.328.448a.257.257,0,0,0,0,.363" transform="translate(5.397 0.862)" fill="#6cc"/>
          <path id="Trazado_769126" data-name="Trazado 769126" d="M37.425,7.77a.257.257,0,0,0-.257-.257l-.546-.085a1.985,1.985,0,0,0-.034.343,2.008,2.008,0,0,0,.034.343l.546-.086a.257.257,0,0,0,.257-.256" transform="translate(5.049 1.025)" fill="#6cc"/>
          <path id="Trazado_769127" data-name="Trazado 769127" d="M39.494,7.77a.256.256,0,0,0,.256.256l.547.086a2.009,2.009,0,0,0,.035-.343,1.986,1.986,0,0,0-.035-.343l-.547.085a.257.257,0,0,0-.256.257" transform="translate(5.45 1.025)" fill="#6cc"/>
          <path id="Trazado_769128" data-name="Trazado 769128" d="M36.928,6.731l.448.328a.257.257,0,0,0,.363-.364l-.327-.448a2.043,2.043,0,0,0-.485.485" transform="translate(5.096 0.862)" fill="#6cc"/>
          <path id="Trazado_769129" data-name="Trazado 769129" d="M38.451,6.744a.258.258,0,0,0,.257-.257l.085-.546a2.144,2.144,0,0,0-.343-.034,2.1,2.1,0,0,0-.343.034l.084.546a.257.257,0,0,0,.258.257" transform="translate(5.258 0.815)" fill="#6cc"/>
          <path id="Trazado_769130" data-name="Trazado 769130" d="M40,8.832,39.548,8.5a.257.257,0,0,0-.363.363l.327.448A2.059,2.059,0,0,0,40,8.832" transform="translate(5.397 1.163)" fill="#6cc"/>
          <path id="Trazado_769131" data-name="Trazado 769131" d="M37.413,9.315l.328-.448a.257.257,0,0,0-.364-.363l-.448.328a2.059,2.059,0,0,0,.485.484" transform="translate(5.096 1.163)" fill="#6cc"/>
          <path id="Trazado_769132" data-name="Trazado 769132" d="M38.793,9.617l-.085-.547a.257.257,0,1,0-.514,0l-.086.547a1.686,1.686,0,0,0,.686,0" transform="translate(5.258 1.216)" fill="#6cc"/>
          <path id="Trazado_769133" data-name="Trazado 769133" d="M46.555,8.03a2.488,2.488,0,1,1-2.488-2.489A2.488,2.488,0,0,1,46.555,8.03" transform="translate(5.737 0.765)" fill="#333"/>
          <path id="Trazado_769134" data-name="Trazado 769134" d="M46.276,8a2.24,2.24,0,1,1-2.24-2.24A2.24,2.24,0,0,1,46.276,8" transform="translate(5.768 0.795)" fill="#fff"/>
          <path id="Trazado_769135" data-name="Trazado 769135" d="M44.5,7.807a.653.653,0,1,1-.653-.653.653.653,0,0,1,.653.653" transform="translate(5.96 0.987)" fill="#333"/>
          <path id="Trazado_769136" data-name="Trazado 769136" d="M44.542,7.058a.257.257,0,0,0,.363,0l.45-.328a2.1,2.1,0,0,0-.485-.484l-.328.448a.257.257,0,0,0,0,.363" transform="translate(6.136 0.862)" fill="#6cc"/>
          <path id="Trazado_769137" data-name="Trazado 769137" d="M42.783,7.77a.258.258,0,0,0-.258-.257l-.546-.085a2.105,2.105,0,0,0-.034.343,2.131,2.131,0,0,0,.034.343l.546-.086a.258.258,0,0,0,.258-.256" transform="translate(5.788 1.025)" fill="#6cc"/>
          <path id="Trazado_769138" data-name="Trazado 769138" d="M44.851,7.77a.257.257,0,0,0,.257.256l.546.086a2.009,2.009,0,0,0,.035-.343,1.985,1.985,0,0,0-.035-.343l-.546.085a.257.257,0,0,0-.257.257" transform="translate(6.189 1.025)" fill="#6cc"/>
          <path id="Trazado_769139" data-name="Trazado 769139" d="M42.285,6.731l.448.328a.257.257,0,0,0,.363-.364l-.327-.448a2.043,2.043,0,0,0-.485.485" transform="translate(5.835 0.862)" fill="#6cc"/>
          <path id="Trazado_769140" data-name="Trazado 769140" d="M43.808,6.744a.257.257,0,0,0,.257-.257l.085-.546a2.131,2.131,0,0,0-.343-.034,2.1,2.1,0,0,0-.343.034l.085.546a.257.257,0,0,0,.257.257" transform="translate(5.998 0.815)" fill="#6cc"/>
          <path id="Trazado_769141" data-name="Trazado 769141" d="M45.353,8.832,44.905,8.5a.257.257,0,0,0-.363.363l.328.448a2.076,2.076,0,0,0,.484-.484" transform="translate(6.136 1.163)" fill="#6cc"/>
          <path id="Trazado_769142" data-name="Trazado 769142" d="M42.769,9.315l.328-.448a.257.257,0,0,0-.364-.363l-.448.328a2.059,2.059,0,0,0,.485.484" transform="translate(5.835 1.163)" fill="#6cc"/>
          <path id="Trazado_769143" data-name="Trazado 769143" d="M44.149,9.617l-.085-.547a.257.257,0,1,0-.514,0l-.085.547a1.681,1.681,0,0,0,.685,0" transform="translate(5.998 1.216)" fill="#6cc"/>
          <path id="Trazado_769157" data-name="Trazado 769157" d="M0,0H57.887V18.806H0Z" transform="translate(0 24.987)" fill="#6cc"/>
          <rect id="Rectángulo_355099" data-name="Rectángulo 355099" width="28.325" height="3.186" transform="translate(0 24.987)" fill="#999"/>
          <rect id="Rectángulo_355100" data-name="Rectángulo 355100" width="28.325" height="0.29" transform="translate(0 28.173)" fill="#333"/>
          <rect id="Rectángulo_355101" data-name="Rectángulo 355101" width="28.325" height="0.516" transform="translate(0 25.501)" fill="#fff"/>
          <path id="Trazado_769144" data-name="Trazado 769144" d="M39.1,35.266a6.093,6.093,0,1,1,8.617,0,6.094,6.094,0,0,1-8.617,0" transform="translate(5.15 3.431)" fill="#333"/>
          <path id="Trazado_769145" data-name="Trazado 769145" d="M40.473,33.333a3.759,3.759,0,1,1,5.316,0,3.758,3.758,0,0,1-5.316,0" transform="translate(5.433 3.714)" fill="#399"/>
          <path id="Trazado_769146" data-name="Trazado 769146" d="M41.729,31.556a1.612,1.612,0,1,1,2.279,0,1.613,1.613,0,0,1-2.279,0" transform="translate(5.693 3.975)" fill="#333"/>
          <path id="Trazado_769147" data-name="Trazado 769147" d="M46.214,33.979l.217-.218L47.5,34.832l-.218.217Zm2.251-.52.129-.279-1.372-.641-.13.28Zm.563-1.9.026-.307-1.509-.132-.026.306Zm-.119-1.978-.08-.3-1.463.391.08.3Zm-.787-1.816-.176-.251-1.242.869.175.251ZM46.759,26.33l-.253-.175-.868,1.24.251.176Zm-1.772-.884-.3-.08L44.3,26.83l.3.08Zm-5,7.932-.172-.254-1.256.847.172.255Zm-.641-1.305-.074-.3-1.47.366.074.3Zm-.155-1.445.033-.306-1.508-.158-.033.306Zm.349-1.411.134-.278-1.362-.663-.134.277Zm.81-1.207.222-.213L39.515,26.7l-.221.214Zm1.176-.857.28-.125-.617-1.385-.281.126Zm1.4-.4.307-.02-.107-1.514-.306.023Z" transform="translate(5.199 3.479)" fill="#fff"/>
          <rect id="Rectángulo_355102" data-name="Rectángulo 355102" width="9.371" height="15.04" transform="translate(6.303 28.463)" fill="#333"/>
          <rect id="Rectángulo_355103" data-name="Rectángulo 355103" width="8.294" height="13.906" transform="translate(6.842 29.03)" fill="#999"/>
          <rect id="Rectángulo_355104" data-name="Rectángulo 355104" width="1.507" height="5.294" transform="translate(22.745)" fill="#999"/>
          <rect id="Rectángulo_355105" data-name="Rectángulo 355105" width="0.311" height="5.294" transform="translate(23.498)" fill="#fff"/>
          <rect id="Rectángulo_355106" data-name="Rectángulo 355106" width="2.145" height="1.168" transform="translate(32.495 26.579)" fill="#930"/>
          <rect id="Rectángulo_355107" data-name="Rectángulo 355107" width="2.146" height="1.168" transform="translate(35.305 26.579)" fill="#fff"/>
          <rect id="Rectángulo_355108" data-name="Rectángulo 355108" width="37.284" height="7.493" transform="translate(11.004 43.793)" fill="#333"/>
          <rect id="Rectángulo_355109" data-name="Rectángulo 355109" width="2.145" height="1.168" transform="translate(38.115 26.579)" fill="#333"/>
          <path id="Trazado_769148" data-name="Trazado 769148" d="M13.09,38.482H10.519l.6,6.827a.731.731,0,0,0,.728.666.628.628,0,0,0,.626-.572Z" transform="translate(1.452 5.31)" fill="#666"/>
          <path id="Trazado_769149" data-name="Trazado 769149" d="M16.686,38.482H14.115l.6,6.827a.731.731,0,0,0,.728.666.626.626,0,0,0,.625-.572Z" transform="translate(1.948 5.31)" fill="#666"/>
          <path id="Trazado_769150" data-name="Trazado 769150" d="M20.281,38.482H17.709l.605,6.827a.73.73,0,0,0,.728.666.626.626,0,0,0,.625-.572Z" transform="translate(2.444 5.31)" fill="#666"/>
          <path id="Trazado_769151" data-name="Trazado 769151" d="M23.877,38.482H21.306l.6,6.827a.73.73,0,0,0,.727.666.628.628,0,0,0,.626-.572Z" transform="translate(2.94 5.31)" fill="#666"/>
          <path id="Trazado_769152" data-name="Trazado 769152" d="M27.472,38.482H24.9l.6,6.827a.73.73,0,0,0,.727.666.628.628,0,0,0,.626-.572Z" transform="translate(3.436 5.31)" fill="#666"/>
          <path id="Trazado_769153" data-name="Trazado 769153" d="M31.068,38.482H28.5l.6,6.827a.73.73,0,0,0,.727.666.628.628,0,0,0,.626-.572Z" transform="translate(3.932 5.31)" fill="#666"/>
          <path id="Trazado_769154" data-name="Trazado 769154" d="M34.663,38.482H32.092l.6,6.827a.73.73,0,0,0,.728.666.627.627,0,0,0,.625-.572Z" transform="translate(4.428 5.31)" fill="#666"/>
          <path id="Trazado_769155" data-name="Trazado 769155" d="M38.258,38.482H35.687l.6,6.827a.73.73,0,0,0,.728.666.627.627,0,0,0,.625-.572Z" transform="translate(4.924 5.31)" fill="#666"/>
          <path id="Trazado_769156" data-name="Trazado 769156" d="M41.854,38.482H39.282l.6,6.827a.732.732,0,0,0,.729.666.627.627,0,0,0,.625-.572Z" transform="translate(5.42 5.31)" fill="#666"/>
          <rect id="Rectángulo_355110" data-name="Rectángulo 355110" width="2.314" height="8.211" transform="translate(48.288 43.793)" fill="#666"/>
          <rect id="Rectángulo_355111" data-name="Rectángulo 355111" width="2.314" height="8.211" transform="translate(8.691 43.793)" fill="#666"/>
        </g>
      </g>
    </g>
    <g id="Grupo_1042320" data-name="Grupo 1042320" transform="matrix(0.999, 0.035, -0.035, 0.999, -11159.627, -12437.994)">
      <rect id="Rectángulo_355205" data-name="Rectángulo 355205" width="5.059" height="2.286" transform="translate(15.564 25.023)" fill="#f93"/>
      <rect id="Rectángulo_355206" data-name="Rectángulo 355206" width="3.477" height="1.309" transform="translate(16.355 21.694)" fill="#f93"/>
      <g id="Grupo_1042316" data-name="Grupo 1042316" transform="translate(0 0)">
        <g id="Grupo_1042315" data-name="Grupo 1042315" clip-path="url(#clip-path-2)">
          <path id="Trazado_769264" data-name="Trazado 769264" d="M15.272,0a1.737,1.737,0,0,0-1.738,1.738V5.175h3.477V1.738A1.738,1.738,0,0,0,15.272,0" transform="translate(2.822 0)" fill="#f93"/>
          <path id="Trazado_769265" data-name="Trazado 769265" d="M18.866,13.74H12.225l1.581,5.084h3.477Z" transform="translate(2.549 2.865)" fill="#ccc"/>
          <path id="Trazado_769266" data-name="Trazado 769266" d="M18.866,15.712H12.225l1.581-11.43h3.477Z" transform="translate(2.549 0.893)" fill="#fff"/>
          <rect id="Rectángulo_355207" data-name="Rectángulo 355207" width="2.882" height="2.021" transform="translate(16.652 23.003)" fill="#c63"/>
          <path id="Trazado_769267" data-name="Trazado 769267" d="M15.786,11.092l.8-.462H12.665l-.064.462Z" transform="translate(2.627 2.217)" fill="#ccc"/>
          <path id="Trazado_769268" data-name="Trazado 769268" d="M13.418,11.61l.457-.365h-1.3l-.051.365Z" transform="translate(2.612 2.345)" fill="#ccc"/>
          <path id="Trazado_769269" data-name="Trazado 769269" d="M15.22,10.421l.98-.344H12.738l-.047.344Z" transform="translate(2.646 2.101)" fill="#ccc"/>
          <path id="Trazado_769270" data-name="Trazado 769270" d="M13.816,12.55l.648-.377H12.449l-.053.377Z" transform="translate(2.585 2.539)" fill="#ccc"/>
          <path id="Trazado_769271" data-name="Trazado 769271" d="M15.623,12.007l.682-.146H12.488l-.021.146Z" transform="translate(2.6 2.473)" fill="#ccc"/>
          <path id="Trazado_769272" data-name="Trazado 769272" d="M14.833,9.972,14.642,9.7H12.79l-.039.272Z" transform="translate(2.659 2.023)" fill="#ccc"/>
          <path id="Trazado_769273" data-name="Trazado 769273" d="M13.532,13.094l.787-.256H12.355l-.036.256Z" transform="translate(2.568 2.677)" fill="#ccc"/>
          <path id="Trazado_769274" data-name="Trazado 769274" d="M13.975,4.791h-.5l-.1.689h2.822Z" transform="translate(2.791 0.999)" fill="#ccc"/>
          <path id="Trazado_769275" data-name="Trazado 769275" d="M14.342,6.083l.585-.222H13.319l-.03.222Z" transform="translate(2.771 1.223)" fill="#ccc"/>
          <path id="Trazado_769276" data-name="Trazado 769276" d="M16.441,9.307l.35-.41H12.9l-.057.41Z" transform="translate(2.679 1.856)" fill="#ccc"/>
          <path id="Trazado_769277" data-name="Trazado 769277" d="M13.805,6.957l2.506-.237H13.2l-.031.237Z" transform="translate(2.746 1.402)" fill="#ccc"/>
          <path id="Trazado_769278" data-name="Trazado 769278" d="M16.5,8.654,15.871,8.2H13l-.062.454Z" transform="translate(2.698 1.71)" fill="#ccc"/>
          <path id="Trazado_769279" data-name="Trazado 769279" d="M16.4,7.916l-.276-.108H13.048l-.015.108Z" transform="translate(2.718 1.629)" fill="#ccc"/>
          <path id="Trazado_769280" data-name="Trazado 769280" d="M14.36,7.584l-.337-.151H13.1l-.021.151Z" transform="translate(2.727 1.55)" fill="#ccc"/>
          <path id="Trazado_769281" data-name="Trazado 769281" d="M17.442,12.915h.191l-.03-.227Z" transform="translate(3.637 2.646)" fill="#ccc"/>
          <path id="Trazado_769282" data-name="Trazado 769282" d="M16.2,6.136l.2.179h.389l-.024-.179Z" transform="translate(3.378 1.28)" fill="#ccc"/>
          <path id="Trazado_769283" data-name="Trazado 769283" d="M17.016,8.589l-.007-.046h-.053Z" transform="translate(3.535 1.782)" fill="#ccc"/>
          <path id="Trazado_769284" data-name="Trazado 769284" d="M16.537,7.661l.132.1h.294l-.013-.1Z" transform="translate(3.448 1.598)" fill="#ccc"/>
          <path id="Trazado_769285" data-name="Trazado 769285" d="M16.455,6.838h.371l-.017-.118h-.094Z" transform="translate(3.431 1.402)" fill="#ccc"/>
          <path id="Trazado_769286" data-name="Trazado 769286" d="M16.592,5.4l-.013-.094h-.151Z" transform="translate(3.425 1.108)" fill="#ccc"/>
          <path id="Trazado_769287" data-name="Trazado 769287" d="M14.9,4.459l1.228-.176H13.537l-.023.176Z" transform="translate(2.818 0.893)" fill="#ccc"/>
          <path id="Trazado_769288" data-name="Trazado 769288" d="M16.47,4.687l-.023,0Z" transform="translate(3.429 0.977)" fill="#ccc"/>
          <path id="Trazado_769289" data-name="Trazado 769289" d="M16.642,9.236l.45.219h.129l-.03-.219Z" transform="translate(3.47 1.926)" fill="#ccc"/>
          <path id="Trazado_769290" data-name="Trazado 769290" d="M17.274,13.546h.5l-.029-.2h-.329Z" transform="translate(3.602 2.782)" fill="#ccc"/>
          <path id="Trazado_769291" data-name="Trazado 769291" d="M16.45,11.849l-.07.057h1.3l-.035-.261-.144.2Z" transform="translate(3.415 2.428)" fill="#ccc"/>
          <path id="Trazado_769292" data-name="Trazado 769292" d="M17.031,12.664h.691l-.047-.335H16.8Z" transform="translate(3.502 2.571)" fill="#ccc"/>
          <path id="Trazado_769293" data-name="Trazado 769293" d="M17.029,10.9l.111.155h.268l-.021-.155Z" transform="translate(3.551 2.274)" fill="#ccc"/>
          <path id="Trazado_769294" data-name="Trazado 769294" d="M16.418,10.163l-.181.128H17.45l-.019-.128Z" transform="translate(3.385 2.12)" fill="#ccc"/>
          <path id="Trazado_769295" data-name="Trazado 769295" d="M16.666,13.757l.682-.415H12.29l-.059.415Z" transform="translate(2.55 2.782)" fill="#ccc"/>
          <path id="Trazado_769296" data-name="Trazado 769296" d="M15.53,16.436l-.763-.387H12.943l.12.387Z" transform="translate(2.699 3.347)" fill="#fff"/>
          <path id="Trazado_769297" data-name="Trazado 769297" d="M15.146,16.884l-.939-.29H13.112l.091.29Z" transform="translate(2.734 3.46)" fill="#fff"/>
          <path id="Trazado_769298" data-name="Trazado 769298" d="M13.641,17.186l.182-.226h-.6l.071.226Z" transform="translate(2.758 3.537)" fill="#fff"/>
          <path id="Trazado_769299" data-name="Trazado 769299" d="M15.293,15.361l-.655-.123H12.69l.04.123Z" transform="translate(2.646 3.178)" fill="#fff"/>
          <path id="Trazado_769300" data-name="Trazado 769300" d="M15.687,17.88l-.337-.343H13.405l.108.343Z" transform="translate(2.795 3.657)" fill="#fff"/>
          <path id="Trazado_769301" data-name="Trazado 769301" d="M13.415,14.558l-.758-.214h-.245l.066.214Z" transform="translate(2.588 2.991)" fill="#fff"/>
          <path id="Trazado_769302" data-name="Trazado 769302" d="M12.355,14.158h3.983l-.655-.347H12.246Z" transform="translate(2.553 2.88)" fill="#fff"/>
          <path id="Trazado_769303" data-name="Trazado 769303" d="M13.538,15.133l-.621-.317h-.359l.1.317Z" transform="translate(2.618 3.09)" fill="#fff"/>
          <path id="Trazado_769304" data-name="Trazado 769304" d="M12.871,15.817l.013.045h.051Z" transform="translate(2.684 3.298)" fill="#fff"/>
          <path id="Trazado_769305" data-name="Trazado 769305" d="M16.279,16.035l-.105.129h.966l.04-.129Z" transform="translate(3.372 3.344)" fill="#fff"/>
          <path id="Trazado_769306" data-name="Trazado 769306" d="M16.816,15.364H15.551l.066.047H16.63l.245.3h.585l.153-.487Z" transform="translate(3.242 3.175)" fill="#fff"/>
          <path id="Trazado_769307" data-name="Trazado 769307" d="M16.7,14.49l.222.273h-.746l-.226.279h1.686l.173-.552Z" transform="translate(3.325 3.022)" fill="#fff"/>
          <path id="Trazado_769308" data-name="Trazado 769308" d="M16.408,13.958l.138.17h1.311l.054-.17Z" transform="translate(3.421 2.911)" fill="#fff"/>
          <path id="Trazado_769309" data-name="Trazado 769309" d="M16.363,17.942l.057.006Z" transform="translate(3.412 3.741)" fill="#fff"/>
          <path id="Trazado_769310" data-name="Trazado 769310" d="M16.233,17.386l-.43.181h.889l.057-.181Z" transform="translate(3.295 3.625)" fill="#fff"/>
          <path id="Trazado_769311" data-name="Trazado 769311" d="M16.359,17.147l.153.124h.17l.039-.124Z" transform="translate(3.411 3.576)" fill="#fff"/>
          <path id="Trazado_769312" data-name="Trazado 769312" d="M15.413,16.671l.174.108h1.477l.035-.108Z" transform="translate(3.214 3.476)" fill="#fff"/>
          <path id="Trazado_769313" data-name="Trazado 769313" d="M15.864.435h-.185V5.084h.26V.442c-.025,0-.05-.007-.075-.007" transform="translate(3.269 0.091)" fill="#fc6"/>
          <rect id="Rectángulo_355208" data-name="Rectángulo 355208" width="0.261" height="1.309" transform="translate(18.948 21.694)" fill="#fc6"/>
          <rect id="Rectángulo_355209" data-name="Rectángulo 355209" width="0.261" height="2.286" transform="translate(19.746 25.023)" fill="#fc6"/>
          <rect id="Rectángulo_355210" data-name="Rectángulo 355210" width="5.059" height="2.286" transform="translate(8.178 25.023)" fill="#f93"/>
          <rect id="Rectángulo_355211" data-name="Rectángulo 355211" width="3.476" height="1.309" transform="translate(8.97 21.694)" fill="#f93"/>
          <path id="Trazado_769314" data-name="Trazado 769314" d="M9.159,0A1.736,1.736,0,0,0,7.422,1.738V5.175H10.9V1.738A1.737,1.737,0,0,0,9.159,0" transform="translate(1.548 0)" fill="#f93"/>
          <path id="Trazado_769315" data-name="Trazado 769315" d="M12.753,13.74H6.112l1.583,5.084H11.17Z" transform="translate(1.274 2.865)" fill="#ccc"/>
          <path id="Trazado_769316" data-name="Trazado 769316" d="M12.753,15.712H6.112L7.695,4.282H11.17Z" transform="translate(1.274 0.893)" fill="#fff"/>
          <rect id="Rectángulo_355212" data-name="Rectángulo 355212" width="2.882" height="2.021" transform="translate(9.267 23.003)" fill="#c63"/>
          <path id="Trazado_769317" data-name="Trazado 769317" d="M9.674,11.092l.794-.462H6.554l-.064.462Z" transform="translate(1.353 2.217)" fill="#ccc"/>
          <path id="Trazado_769318" data-name="Trazado 769318" d="M7.306,11.61l.458-.365h-1.3l-.05.365Z" transform="translate(1.338 2.345)" fill="#ccc"/>
          <path id="Trazado_769319" data-name="Trazado 769319" d="M9.108,10.421l.978-.344H6.627l-.047.344Z" transform="translate(1.372 2.101)" fill="#ccc"/>
          <path id="Trazado_769320" data-name="Trazado 769320" d="M7.7,12.55l.648-.377H6.338l-.053.377Z" transform="translate(1.31 2.539)" fill="#ccc"/>
          <path id="Trazado_769321" data-name="Trazado 769321" d="M9.511,12.007l.682-.146H6.375l-.019.146Z" transform="translate(1.325 2.473)" fill="#ccc"/>
          <path id="Trazado_769322" data-name="Trazado 769322" d="M8.72,9.972,8.529,9.7H6.679l-.039.272Z" transform="translate(1.385 2.023)" fill="#ccc"/>
          <path id="Trazado_769323" data-name="Trazado 769323" d="M7.418,13.094l.789-.256H6.242l-.035.256Z" transform="translate(1.294 2.677)" fill="#ccc"/>
          <path id="Trazado_769324" data-name="Trazado 769324" d="M7.864,4.791h-.5l-.1.689h2.823Z" transform="translate(1.516 0.999)" fill="#ccc"/>
          <path id="Trazado_769325" data-name="Trazado 769325" d="M8.231,6.083l.584-.222H7.208l-.03.222Z" transform="translate(1.497 1.223)" fill="#ccc"/>
          <path id="Trazado_769326" data-name="Trazado 769326" d="M10.329,9.307l.352-.41H6.793l-.058.41Z" transform="translate(1.404 1.856)" fill="#ccc"/>
          <path id="Trazado_769327" data-name="Trazado 769327" d="M7.694,6.957,10.2,6.72H7.09l-.033.237Z" transform="translate(1.471 1.402)" fill="#ccc"/>
          <path id="Trazado_769328" data-name="Trazado 769328" d="M10.385,8.654,9.759,8.2H6.889l-.062.454Z" transform="translate(1.424 1.71)" fill="#ccc"/>
          <path id="Trazado_769329" data-name="Trazado 769329" d="M10.29,7.916l-.276-.108H6.937l-.016.108Z" transform="translate(1.443 1.629)" fill="#ccc"/>
          <path id="Trazado_769330" data-name="Trazado 769330" d="M8.247,7.584l-.336-.151H6.989l-.022.151Z" transform="translate(1.453 1.55)" fill="#ccc"/>
          <path id="Trazado_769331" data-name="Trazado 769331" d="M11.328,12.915h.193l-.031-.227Z" transform="translate(2.362 2.646)" fill="#ccc"/>
          <path id="Trazado_769332" data-name="Trazado 769332" d="M10.092,6.136l.2.179h.389l-.025-.179Z" transform="translate(2.104 1.28)" fill="#ccc"/>
          <path id="Trazado_769333" data-name="Trazado 769333" d="M10.9,8.589,10.9,8.543h-.054Z" transform="translate(2.261 1.782)" fill="#ccc"/>
          <path id="Trazado_769334" data-name="Trazado 769334" d="M10.425,7.661l.133.1h.294l-.013-.1Z" transform="translate(2.174 1.598)" fill="#ccc"/>
          <path id="Trazado_769335" data-name="Trazado 769335" d="M10.344,6.838h.369L10.7,6.719H10.6Z" transform="translate(2.157 1.402)" fill="#ccc"/>
          <path id="Trazado_769336" data-name="Trazado 769336" d="M10.48,5.4l-.013-.094h-.151Z" transform="translate(2.151 1.108)" fill="#ccc"/>
          <path id="Trazado_769337" data-name="Trazado 769337" d="M8.792,4.459l1.227-.176H7.426L7.4,4.459Z" transform="translate(1.543 0.893)" fill="#ccc"/>
          <path id="Trazado_769338" data-name="Trazado 769338" d="M10.358,4.687l-.023,0Z" transform="translate(2.155 0.977)" fill="#ccc"/>
          <path id="Trazado_769339" data-name="Trazado 769339" d="M10.529,9.236l.45.219h.131l-.03-.219Z" transform="translate(2.195 1.926)" fill="#ccc"/>
          <path id="Trazado_769340" data-name="Trazado 769340" d="M11.162,13.546h.5l-.028-.2h-.329Z" transform="translate(2.327 2.782)" fill="#ccc"/>
          <path id="Trazado_769341" data-name="Trazado 769341" d="M10.336,11.849l-.069.057h1.305l-.035-.261-.144.2Z" transform="translate(2.141 2.428)" fill="#ccc"/>
          <path id="Trazado_769342" data-name="Trazado 769342" d="M10.919,12.664h.692l-.047-.335h-.882Z" transform="translate(2.227 2.571)" fill="#ccc"/>
          <path id="Trazado_769343" data-name="Trazado 769343" d="M10.918,10.9l.109.155H11.3l-.022-.155Z" transform="translate(2.276 2.274)" fill="#ccc"/>
          <path id="Trazado_769344" data-name="Trazado 769344" d="M10.307,10.163l-.181.128h1.211l-.018-.128Z" transform="translate(2.111 2.12)" fill="#ccc"/>
          <path id="Trazado_769345" data-name="Trazado 769345" d="M10.554,13.757l.682-.415H6.177l-.058.415Z" transform="translate(1.276 2.782)" fill="#ccc"/>
          <path id="Trazado_769346" data-name="Trazado 769346" d="M9.42,16.436l-.763-.387H6.83l.122.387Z" transform="translate(1.424 3.347)" fill="#fff"/>
          <path id="Trazado_769347" data-name="Trazado 769347" d="M9.035,16.884l-.939-.29H7l.091.29Z" transform="translate(1.459 3.46)" fill="#fff"/>
          <path id="Trazado_769348" data-name="Trazado 769348" d="M7.528,17.186l.184-.226h-.6l.069.226Z" transform="translate(1.484 3.537)" fill="#fff"/>
          <path id="Trazado_769349" data-name="Trazado 769349" d="M9.18,15.361l-.655-.123H6.578l.037.123Z" transform="translate(1.372 3.178)" fill="#fff"/>
          <path id="Trazado_769350" data-name="Trazado 769350" d="M9.575,17.88l-.337-.343H7.294l.106.343Z" transform="translate(1.521 3.657)" fill="#fff"/>
          <path id="Trazado_769351" data-name="Trazado 769351" d="M7.3,14.558l-.755-.214H6.3l.066.214Z" transform="translate(1.314 2.991)" fill="#fff"/>
          <path id="Trazado_769352" data-name="Trazado 769352" d="M6.242,14.158h3.983l-.654-.347H6.135Z" transform="translate(1.279 2.88)" fill="#fff"/>
          <path id="Trazado_769353" data-name="Trazado 769353" d="M7.427,15.133,6.8,14.816H6.447l.1.317Z" transform="translate(1.344 3.09)" fill="#fff"/>
          <path id="Trazado_769354" data-name="Trazado 769354" d="M6.758,15.817l.015.045h.052Z" transform="translate(1.409 3.298)" fill="#fff"/>
          <path id="Trazado_769355" data-name="Trazado 769355" d="M10.168,16.035l-.105.129h.964l.04-.129Z" transform="translate(2.098 3.344)" fill="#fff"/>
          <path id="Trazado_769356" data-name="Trazado 769356" d="M10.7,15.364H9.438l.068.047h1.013l.245.3h.585l.153-.487Z" transform="translate(1.968 3.175)" fill="#fff"/>
          <path id="Trazado_769357" data-name="Trazado 769357" d="M10.587,14.49l.222.273h-.747l-.226.279h1.687l.173-.552Z" transform="translate(2.051 3.022)" fill="#fff"/>
          <path id="Trazado_769358" data-name="Trazado 769358" d="M10.3,13.958l.138.17h1.312l.053-.17Z" transform="translate(2.147 2.911)" fill="#fff"/>
          <path id="Trazado_769359" data-name="Trazado 769359" d="M10.252,17.942l.056.006Z" transform="translate(2.138 3.741)" fill="#fff"/>
          <path id="Trazado_769360" data-name="Trazado 769360" d="M10.121,17.386l-.431.181h.889l.057-.181Z" transform="translate(2.02 3.625)" fill="#fff"/>
          <path id="Trazado_769361" data-name="Trazado 769361" d="M10.248,17.147l.153.124h.17l.037-.124Z" transform="translate(2.137 3.576)" fill="#fff"/>
          <path id="Trazado_769362" data-name="Trazado 769362" d="M9.3,16.671l.174.108h1.477l.034-.108Z" transform="translate(1.939 3.476)" fill="#fff"/>
          <path id="Trazado_769363" data-name="Trazado 769363" d="M9.752.435H9.567V5.084h.26V.442A.749.749,0,0,0,9.752.435" transform="translate(1.995 0.091)" fill="#fc6"/>
          <rect id="Rectángulo_355213" data-name="Rectángulo 355213" width="0.261" height="1.309" transform="translate(11.562 21.694)" fill="#fc6"/>
          <rect id="Rectángulo_355214" data-name="Rectángulo 355214" width="0.262" height="2.286" transform="translate(12.359 25.023)" fill="#fc6"/>
          <rect id="Rectángulo_355215" data-name="Rectángulo 355215" width="5.06" height="2.286" transform="translate(0.792 25.023)" fill="#f93"/>
          <rect id="Rectángulo_355216" data-name="Rectángulo 355216" width="3.476" height="1.309" transform="translate(1.583 21.694)" fill="#f93"/>
          <path id="Trazado_769364" data-name="Trazado 769364" d="M3.048,0A1.737,1.737,0,0,0,1.31,1.738V5.175H4.784V1.738A1.736,1.736,0,0,0,3.048,0" transform="translate(0.273 0)" fill="#f93"/>
          <path id="Trazado_769365" data-name="Trazado 769365" d="M6.642,13.74H0l1.583,5.084H5.058Z" transform="translate(0 2.865)" fill="#ccc"/>
          <path id="Trazado_769366" data-name="Trazado 769366" d="M6.642,15.712H0L1.583,4.282H5.058Z" transform="translate(0 0.893)" fill="#fff"/>
          <rect id="Rectángulo_355217" data-name="Rectángulo 355217" width="2.885" height="2.021" transform="translate(1.879 23.003)" fill="#c63"/>
          <path id="Trazado_769367" data-name="Trazado 769367" d="M3.564,11.092l.793-.462H.441l-.064.462Z" transform="translate(0.079 2.217)" fill="#ccc"/>
          <path id="Trazado_769368" data-name="Trazado 769368" d="M1.195,11.61l.458-.365H.355L.3,11.61Z" transform="translate(0.063 2.345)" fill="#ccc"/>
          <path id="Trazado_769369" data-name="Trazado 769369" d="M3,10.421l.979-.344H.516l-.048.344Z" transform="translate(0.097 2.101)" fill="#ccc"/>
          <path id="Trazado_769370" data-name="Trazado 769370" d="M1.592,12.55l.648-.377H.226l-.052.377Z" transform="translate(0.036 2.539)" fill="#ccc"/>
          <path id="Trazado_769371" data-name="Trazado 769371" d="M3.4,12.007l.682-.146H.263l-.019.146Z" transform="translate(0.051 2.473)" fill="#ccc"/>
          <path id="Trazado_769372" data-name="Trazado 769372" d="M2.609,9.972,2.418,9.7H.565l-.037.272Z" transform="translate(0.11 2.023)" fill="#ccc"/>
          <path id="Trazado_769373" data-name="Trazado 769373" d="M1.307,13.094l.788-.256H.131L.1,13.094Z" transform="translate(0.02 2.677)" fill="#ccc"/>
          <path id="Trazado_769374" data-name="Trazado 769374" d="M1.75,4.791H1.256l-.1.689H3.984Z" transform="translate(0.242 0.999)" fill="#ccc"/>
          <path id="Trazado_769375" data-name="Trazado 769375" d="M2.119,6.083,2.7,5.861H1.1l-.03.222Z" transform="translate(0.222 1.223)" fill="#ccc"/>
          <path id="Trazado_769376" data-name="Trazado 769376" d="M4.217,9.307l.352-.41H.679l-.057.41Z" transform="translate(0.13 1.856)" fill="#ccc"/>
          <path id="Trazado_769377" data-name="Trazado 769377" d="M1.583,6.957,4.089,6.72H.978l-.033.237Z" transform="translate(0.197 1.402)" fill="#ccc"/>
          <path id="Trazado_769378" data-name="Trazado 769378" d="M4.274,8.654,3.647,8.2H.778l-.063.454Z" transform="translate(0.149 1.71)" fill="#ccc"/>
          <path id="Trazado_769379" data-name="Trazado 769379" d="M4.178,7.916,3.9,7.808H.824l-.016.108Z" transform="translate(0.169 1.629)" fill="#ccc"/>
          <path id="Trazado_769380" data-name="Trazado 769380" d="M2.136,7.584,1.8,7.433H.877l-.022.151Z" transform="translate(0.178 1.55)" fill="#ccc"/>
          <path id="Trazado_769381" data-name="Trazado 769381" d="M5.217,12.915h.192l-.031-.227Z" transform="translate(1.088 2.646)" fill="#ccc"/>
          <path id="Trazado_769382" data-name="Trazado 769382" d="M3.981,6.136l.195.179h.388L4.54,6.136Z" transform="translate(0.83 1.28)" fill="#ccc"/>
          <path id="Trazado_769383" data-name="Trazado 769383" d="M4.792,8.589l-.006-.046H4.732Z" transform="translate(0.987 1.782)" fill="#ccc"/>
          <path id="Trazado_769384" data-name="Trazado 769384" d="M4.313,7.661l.133.1H4.74l-.015-.1Z" transform="translate(0.899 1.598)" fill="#ccc"/>
          <path id="Trazado_769385" data-name="Trazado 769385" d="M4.233,6.838H4.6l-.017-.118H4.492Z" transform="translate(0.883 1.402)" fill="#ccc"/>
          <path id="Trazado_769386" data-name="Trazado 769386" d="M4.368,5.4,4.354,5.31H4.2Z" transform="translate(0.876 1.108)" fill="#ccc"/>
          <path id="Trazado_769387" data-name="Trazado 769387" d="M2.679,4.459l1.228-.176H1.314l-.024.176Z" transform="translate(0.269 0.893)" fill="#ccc"/>
          <path id="Trazado_769388" data-name="Trazado 769388" d="M4.246,4.687l-.024,0Z" transform="translate(0.88 0.977)" fill="#ccc"/>
          <path id="Trazado_769389" data-name="Trazado 769389" d="M4.418,9.236l.448.219H5l-.031-.219Z" transform="translate(0.921 1.926)" fill="#ccc"/>
          <path id="Trazado_769390" data-name="Trazado 769390" d="M5.049,13.546h.5l-.028-.2h-.33Z" transform="translate(1.053 2.782)" fill="#ccc"/>
          <path id="Trazado_769391" data-name="Trazado 769391" d="M4.225,11.849l-.069.057h1.3l-.035-.261-.144.2Z" transform="translate(0.867 2.428)" fill="#ccc"/>
          <path id="Trazado_769392" data-name="Trazado 769392" d="M4.806,12.664H5.5l-.046-.335H4.571Z" transform="translate(0.953 2.571)" fill="#ccc"/>
          <path id="Trazado_769393" data-name="Trazado 769393" d="M4.806,10.9l.11.155h.271L5.166,10.9Z" transform="translate(1.002 2.274)" fill="#ccc"/>
          <path id="Trazado_769394" data-name="Trazado 769394" d="M4.2,10.163l-.181.128H5.225l-.018-.128Z" transform="translate(0.837 2.12)" fill="#ccc"/>
          <path id="Trazado_769395" data-name="Trazado 769395" d="M4.441,13.757l.682-.415H.065l-.057.415Z" transform="translate(0.002 2.782)" fill="#ccc"/>
          <path id="Trazado_769396" data-name="Trazado 769396" d="M3.307,16.436l-.761-.387H.718l.121.387Z" transform="translate(0.15 3.347)" fill="#fff"/>
          <path id="Trazado_769397" data-name="Trazado 769397" d="M2.923,16.884l-.939-.29H.888l.091.29Z" transform="translate(0.185 3.46)" fill="#fff"/>
          <path id="Trazado_769398" data-name="Trazado 769398" d="M1.418,17.186,1.6,16.96H1l.071.226Z" transform="translate(0.209 3.537)" fill="#fff"/>
          <path id="Trazado_769399" data-name="Trazado 769399" d="M3.069,15.361l-.655-.123H.467l.037.123Z" transform="translate(0.097 3.178)" fill="#fff"/>
          <path id="Trazado_769400" data-name="Trazado 769400" d="M3.463,17.88l-.337-.343H1.181l.106.343Z" transform="translate(0.246 3.657)" fill="#fff"/>
          <path id="Trazado_769401" data-name="Trazado 769401" d="M1.191,14.558l-.757-.214H.188l.068.214Z" transform="translate(0.039 2.991)" fill="#fff"/>
          <path id="Trazado_769402" data-name="Trazado 769402" d="M.13,14.158H4.114l-.654-.347H.022Z" transform="translate(0.005 2.88)" fill="#fff"/>
          <path id="Trazado_769403" data-name="Trazado 769403" d="M1.316,15.133l-.622-.317H.336l.1.317Z" transform="translate(0.07 3.09)" fill="#fff"/>
          <path id="Trazado_769404" data-name="Trazado 769404" d="M.647,15.817l.015.045H.712Z" transform="translate(0.135 3.298)" fill="#fff"/>
          <path id="Trazado_769405" data-name="Trazado 769405" d="M4.055,16.035l-.1.129h.963l.04-.129Z" transform="translate(0.824 3.344)" fill="#fff"/>
          <path id="Trazado_769406" data-name="Trazado 769406" d="M4.591,15.364H3.326l.066.047H4.408l.245.3h.585l.151-.487Z" transform="translate(0.694 3.175)" fill="#fff"/>
          <path id="Trazado_769407" data-name="Trazado 769407" d="M4.473,14.49l.224.273H3.951l-.226.279H5.412l.17-.552Z" transform="translate(0.777 3.022)" fill="#fff"/>
          <path id="Trazado_769408" data-name="Trazado 769408" d="M4.184,13.958l.139.17H5.634l.053-.17Z" transform="translate(0.872 2.911)" fill="#fff"/>
          <path id="Trazado_769409" data-name="Trazado 769409" d="M4.141,17.942l.054.006Z" transform="translate(0.863 3.741)" fill="#fff"/>
          <path id="Trazado_769410" data-name="Trazado 769410" d="M4.008,17.386l-.429.181h.889l.057-.181Z" transform="translate(0.746 3.625)" fill="#fff"/>
          <path id="Trazado_769411" data-name="Trazado 769411" d="M4.135,17.147l.156.124H4.46l.039-.124Z" transform="translate(0.862 3.576)" fill="#fff"/>
          <path id="Trazado_769412" data-name="Trazado 769412" d="M3.19,16.671l.174.108H4.84l.034-.108Z" transform="translate(0.665 3.476)" fill="#fff"/>
          <path id="Trazado_769413" data-name="Trazado 769413" d="M3.64.435H3.455V5.084h.26V.442A.749.749,0,0,0,3.64.435" transform="translate(0.72 0.091)" fill="#fc6"/>
          <rect id="Rectángulo_355218" data-name="Rectángulo 355218" width="0.26" height="1.309" transform="translate(4.175 21.694)" fill="#fc6"/>
          <rect id="Rectángulo_355219" data-name="Rectángulo 355219" width="0.261" height="2.286" transform="translate(4.973 25.023)" fill="#fc6"/>
        </g>
      </g>
    </g>
  </g>
</svg>
