<svg xmlns="http://www.w3.org/2000/svg" width="338" height="50" viewBox="0 0 338 50">
  <g id="Grupo_1023395" data-name="Grupo 1023395" transform="translate(-353 -2444)">
    <rect id="Rectángulo_347877" data-name="Rectángulo 347877" width="338" height="50" rx="5" transform="translate(353 2444)" fill="#fff"/>
    <g id="Grupo_1042490" data-name="Grupo 1042490">
      <g id="Grupo_1042489" data-name="Grupo 1042489">
        <g id="Grupo_1042488" data-name="Grupo 1042488">
          <path id="Trazado_769510" data-name="Trazado 769510" d="M5.249,11.7a13.865,13.865,0,0,1,.9-3.3A10.213,10.213,0,0,1,7.754,5.669a6.6,6.6,0,0,1,2.124-1.71l.2.908A7.6,7.6,0,0,0,8.1,7.1a11.514,11.514,0,0,0-1.271,3.281A15.782,15.782,0,0,0,6.4,14.132a8.3,8.3,0,0,0,.392,2.67,4.213,4.213,0,0,0,1.132,1.82l-.33.82A5.289,5.289,0,0,1,5.722,16.93a9.689,9.689,0,0,1-.59-3.809,11.579,11.579,0,0,1,.1-1.34Zm7.141.645-1.04.93L10.882,16H9.556L11.511,4.75h1.326l-1.172,6.724.813-.82,2.813-2.578h1.721l-3.64,3.376L15.877,16h-1.45Zm5.581,2.117a.793.793,0,0,1,.593.22.757.757,0,0,1,.227.586.792.792,0,0,1-.242.582.871.871,0,0,1-.586.238.738.738,0,0,1-.806-.776.819.819,0,0,1,.813-.85Zm3.311-2.439a6.166,6.166,0,0,1,.667-2.183A3.779,3.779,0,0,1,23.23,8.383a2.931,2.931,0,0,1,1.677-.461,2.475,2.475,0,0,1,2.036.967l.762-4.138h1.326L27.083,16H25.874l.139-.85a2.921,2.921,0,0,1-2.314,1,2.189,2.189,0,0,1-1.75-.861,3.75,3.75,0,0,1-.7-2.23A7.123,7.123,0,0,1,21.282,12.023Zm1.274.757A2.746,2.746,0,0,0,22.93,14.4,1.347,1.347,0,0,0,24.087,15a2.4,2.4,0,0,0,2.043-1.156l.63-3.658a1.644,1.644,0,0,0-1.6-1.112,2.009,2.009,0,0,0-1.381.472,3.052,3.052,0,0,0-.908,1.383A5.7,5.7,0,0,0,22.556,12.78Zm7.6,1.682a.793.793,0,0,1,.593.22.757.757,0,0,1,.227.586.792.792,0,0,1-.242.582.871.871,0,0,1-.586.238.738.738,0,0,1-.806-.776.819.819,0,0,1,.813-.85Zm6.357,1.685a2.857,2.857,0,0,1-2.314-1.091,3.756,3.756,0,0,1-.7-2.717l.037-.315a5.273,5.273,0,0,1,.7-2.153A4.068,4.068,0,0,1,35.63,8.4a3.273,3.273,0,0,1,1.787-.472,2.52,2.52,0,0,1,1.919.813,3.343,3.343,0,0,1,.762,2.124,6.207,6.207,0,0,1-.029.952l-.081.608H34.81a2.677,2.677,0,0,0,.355,1.831,1.683,1.683,0,0,0,1.454.784,2.819,2.819,0,0,0,2.168-1.055l.762.645a3.486,3.486,0,0,1-1.285,1.124A3.643,3.643,0,0,1,36.509,16.146Zm.842-7.112a1.937,1.937,0,0,0-1.432.557,3.956,3.956,0,0,0-.97,1.721l3.853.007.029-.117a2.168,2.168,0,0,0-.3-1.534A1.4,1.4,0,0,0,37.351,9.035Zm4.482,5.427a.793.793,0,0,1,.593.22.757.757,0,0,1,.227.586.792.792,0,0,1-.242.582.871.871,0,0,1-.586.238.738.738,0,0,1-.806-.776.819.819,0,0,1,.813-.85Zm9.36-1.252H46.873L45.415,16H43.943L49.737,5.336h1.208L53.054,16H51.7Zm-3.713-1.15h3.508L50.1,7.086Zm7.822,2.4a.793.793,0,0,1,.593.22.757.757,0,0,1,.227.586.792.792,0,0,1-.242.582.871.871,0,0,1-.586.238.738.738,0,0,1-.806-.776.819.819,0,0,1,.813-.85Zm8.342-9.126h1.223L67.132,16h-9.7ZM59.558,14.85H65.55L64,7.072Zm11.316-3.025L70.149,16H68.772L70.625,5.336l3.56.007a3.481,3.481,0,0,1,2.542.875A2.753,2.753,0,0,1,77.5,8.544a3.32,3.32,0,0,1-1.219,2.41,4.423,4.423,0,0,1-2.867.879Zm.2-1.15,2.373.007a2.886,2.886,0,0,0,1.838-.564,2.256,2.256,0,0,0,.842-1.567,1.768,1.768,0,0,0-.374-1.461,1.88,1.88,0,0,0-1.428-.59L71.8,6.493ZM81.6,11.715a13.59,13.59,0,0,1-.93,3.38,10.163,10.163,0,0,1-1.615,2.688,6.716,6.716,0,0,1-2.084,1.666l-.205-.842a9.617,9.617,0,0,0,3.354-6.072,15.782,15.782,0,0,0,.322-3.245q-.037-3.142-1.523-4.5l.344-.82a4.855,4.855,0,0,1,1.388,1.52,7.167,7.167,0,0,1,.835,2.2,11.29,11.29,0,0,1,.238,2.6,12.51,12.51,0,0,1-.11,1.34Z" transform="translate(495 2447)" fill="#12263f"/>
          <path id="Trazado_769511" data-name="Trazado 769511" d="M21.7,11.7a13.865,13.865,0,0,1,.9-3.3A10.213,10.213,0,0,1,24.2,5.669a6.6,6.6,0,0,1,2.124-1.71l.2.908A7.6,7.6,0,0,0,24.552,7.1a11.514,11.514,0,0,0-1.271,3.281,15.782,15.782,0,0,0-.432,3.746,8.3,8.3,0,0,0,.392,2.67,4.213,4.213,0,0,0,1.132,1.82l-.33.82a5.289,5.289,0,0,1-1.871-2.512,9.689,9.689,0,0,1-.59-3.809,11.579,11.579,0,0,1,.1-1.34ZM30.2,16H28.863L30.43,7.006,27.6,8l.227-1.289,3.955-1.428h.234Zm11.162-3.977H37.879l.2-1.106h3.479Zm7.756,4.124A2.857,2.857,0,0,1,46.8,15.055a3.756,3.756,0,0,1-.7-2.717l.037-.315a5.273,5.273,0,0,1,.7-2.153,4.068,4.068,0,0,1,1.4-1.469,3.273,3.273,0,0,1,1.787-.472,2.52,2.52,0,0,1,1.919.813,3.343,3.343,0,0,1,.762,2.124,6.207,6.207,0,0,1-.029.952l-.081.608H47.415a2.677,2.677,0,0,0,.355,1.831,1.683,1.683,0,0,0,1.454.784,2.819,2.819,0,0,0,2.168-1.055l.762.645a3.486,3.486,0,0,1-1.285,1.124A3.643,3.643,0,0,1,49.114,16.146Zm.842-7.112a1.937,1.937,0,0,0-1.432.557,3.956,3.956,0,0,0-.97,1.721l3.853.007.029-.117a2.168,2.168,0,0,0-.3-1.534A1.4,1.4,0,0,0,49.956,9.035Zm7.288,2.681a13.59,13.59,0,0,1-.93,3.38A10.163,10.163,0,0,1,54.7,17.783a6.716,6.716,0,0,1-2.084,1.666l-.205-.842a9.617,9.617,0,0,0,3.354-6.072,15.782,15.782,0,0,0,.322-3.245q-.037-3.142-1.523-4.5l.344-.82A4.855,4.855,0,0,1,56.3,5.486a7.167,7.167,0,0,1,.835,2.2,11.29,11.29,0,0,1,.238,2.6,12.51,12.51,0,0,1-.11,1.34Zm3.142,3.135h4.907L65.088,16H58.8L60.657,5.336h1.384Z" transform="translate(495 2471)" fill="#12263f"/>
          <path id="Trazado_769512" data-name="Trazado 769512" d="M12.076,15.443l1.589,1.531-1.018.828-1.86-1.78a5.116,5.116,0,0,1-1.084.117,3.288,3.288,0,0,1-1.765-.487,3.164,3.164,0,0,1-1.183-1.384,5.286,5.286,0,0,1-.465-2.047,9.736,9.736,0,0,1,.194-2.2A7.456,7.456,0,0,1,7.3,7.713,5.375,5.375,0,0,1,8.7,6.054a4.163,4.163,0,0,1,2.681-.864,3.459,3.459,0,0,1,1.794.5,3.117,3.117,0,0,1,1.179,1.381,5.329,5.329,0,0,1,.461,2.047,7.864,7.864,0,0,1-.051,1.223l-.088.623A5.908,5.908,0,0,1,12.076,15.443Zm1.377-5.991A3.624,3.624,0,0,0,12.947,7.2a1.939,1.939,0,0,0-1.626-.813,2.778,2.778,0,0,0-1.754.527A3.992,3.992,0,0,0,8.3,8.584a8.585,8.585,0,0,0-.626,2.809l-.022.476a4.729,4.729,0,0,0,.2,1.575,2.163,2.163,0,0,0,.721,1.113,2.033,2.033,0,0,0,1.212.4,2.772,2.772,0,0,0,2.267-.974,5.609,5.609,0,0,0,1.227-2.893A12.593,12.593,0,0,0,13.453,9.452Zm9.338.586H16.858l.205-1.179H23Zm-.527,3.04H16.331l.205-1.172h5.94Z" transform="translate(449 2459)" fill="#12263f"/>
          <path id="Trazado_737592" data-name="Trazado 737592" d="M-7920.2-9225.681h113.705" transform="translate(8401 11697)" fill="none" stroke="#12263f" stroke-width="1"/>
        </g>
      </g>
    </g>
  </g>
</svg>
