<svg xmlns="http://www.w3.org/2000/svg" width="35.508" height="35.591" viewBox="0 0 35.508 35.591">
  <path id="nudo_1_" data-name="nudo (1)" d="M20.506,5.28a7.357,7.357,0,0,1,5.688-2.324A8.9,8.9,0,0,1,30.421,4.3l.023.013.019.01A8.385,8.385,0,0,1,32.4,5.865l.008.008,0,0a9.119,9.119,0,0,1,2.344,3.994,7.557,7.557,0,0,1,.217,1.158A.521.521,0,0,0,36,10.919,8.587,8.587,0,0,0,35.758,9.6a10.071,10.071,0,0,0-2.325-4.157A16.2,16.2,0,0,1,35.1,3.107c1.65-1.825-1.309-4.36-2.791-2.394a25.857,25.857,0,0,0-1.785,2.438,9.826,9.826,0,0,0-4.284-1.236,8.375,8.375,0,0,0-6.477,2.637A9.972,9.972,0,0,0,16.968,11.2a21.2,21.2,0,0,0,.153,3.8c-1.626.213-3.019.318-4.263.411-3.812.288-6.567.5-9.2,3.623A8.989,8.989,0,0,0,2.21,26.914a10.59,10.59,0,0,0,1.3,3.064,29.986,29.986,0,0,0-2.557,2.5c-1.5,1.7,1.077,4.243,2.645,2.565.776-.829,1.6-1.611,2.432-2.378a9.164,9.164,0,0,0,1.946,1.06,9.383,9.383,0,0,0,8.573-.435,11.239,11.239,0,0,0,5.145-8.209,15,15,0,0,0,.109-1.914c.774-.248,1.527-.473,2.262-.692,3.308-.988,6.433-1.921,8.89-4.264a12.519,12.519,0,0,0,1.71-2.03,8.2,8.2,0,0,0,.939-1.836.521.521,0,0,0-.981-.351,7.147,7.147,0,0,1-.82,1.6,11.309,11.309,0,0,1-1.567,1.861c-2.276,2.17-5.146,3.027-8.472,4.02-.648.194-1.313.392-2,.608-.028-.484-.071-1.13-.13-1.631.569-.177,1.128-.344,1.675-.507,3.932-1.174,7.039-2.1,9.174-5.248a5.214,5.214,0,0,0,.859-3.788,7.092,7.092,0,0,0-1.578-3.364h0l0,0a10.732,10.732,0,0,0-2.1-1.839.445.445,0,0,0-.049-.034A7.305,7.305,0,0,0,26.126,4.55,5.737,5.737,0,0,0,21.643,6.4c-2.179,2.228-2.254,5.188-1.928,8.1-.379.1-.962.234-1.563.346a20.113,20.113,0,0,1-.144-3.581,8.974,8.974,0,0,1,2.5-5.983ZM33.113,1.373c.759-.9,1.894.086,1.168,1.084-.534.734-1.115,1.449-1.6,2.223a9.4,9.4,0,0,0-1.256-1.007,24.768,24.768,0,0,1,1.687-2.3ZM2.936,34.223a.8.8,0,0,1-1.06.138c-.506-.351-.343-.837-.081-1.266a41.941,41.941,0,0,1,5.269-4.8A44.116,44.116,0,0,1,18.07,21.692c.04.557.047,1.244.044,1.706A45.427,45.427,0,0,0,2.936,34.223Zm15.117-9.669c0,.025-.006.05-.009.074a7.6,7.6,0,0,1-3.372,5.5,6.065,6.065,0,0,1-5.7.024A53.62,53.62,0,0,1,14.8,26.2a29.345,29.345,0,0,1,3.252-1.647Zm2.605.4a10.178,10.178,0,0,1-4.643,7.441,8.376,8.376,0,0,1-7.658.363,8.132,8.132,0,0,1-1.54-.812c.365-.32.868-.758,1.269-1.087a6.526,6.526,0,0,0,.857.416,8.277,8.277,0,0,0,3.049.632,6.19,6.19,0,0,0,3.21-.884,8.674,8.674,0,0,0,3.874-6.265A22.642,22.642,0,0,0,18.69,18.5c.634-.1,1.176-.228,1.561-.326a24.418,24.418,0,0,1,.407,6.775ZM31.622,14.114c-1.927,2.84-4.876,3.72-8.615,4.836-.494.147-1,.3-1.517.458-.073-.517-.152-1.031-.229-1.517a14.971,14.971,0,0,0,5.96-3.516A25.7,25.7,0,0,0,31.41,8.817a4.579,4.579,0,0,1,.211,5.3Zm-.9-6.174c-2.175,3.676-4.774,7.06-8.883,8.646-3.468,1.338-7.274,1.241-10.917,1.64a.521.521,0,0,0,.113,1.036c2.206-.241,4.423-.329,6.625-.619.109.7.207,1.349.285,1.98a34.1,34.1,0,0,0-5.005,2.407,57.084,57.084,0,0,0-6.591,4.508c-1.356-2.621-1.023-6.012,1.752-7.52a.521.521,0,0,0-.5-.916C4.256,20.92,3.789,25.081,5.53,28.215L4.3,29.274A9.6,9.6,0,0,1,3.22,26.659a7.937,7.937,0,0,1,1.238-6.951c1.958-2.329,4.486-2.928,7.4-3.171,2.849-.237,5.832-.289,8.582-1.152,4.774-1.495,7.006-5.014,9.061-8.516A9.71,9.71,0,0,1,30.72,7.941Zm-8.332-.816a5.132,5.132,0,0,1,6.237-.819c-1.945,3.317-3.886,6.4-7.9,7.881-.271-2.593-.175-5.187,1.659-7.062Zm0,0" transform="translate(-0.499 -0.001)" fill="#060606"/>
</svg>
