<svg xmlns="http://www.w3.org/2000/svg" xmlns:xlink="http://www.w3.org/1999/xlink" width="88.899" height="88.899" viewBox="0 0 88.899 88.899">
  <defs>
    <filter id="Trazado_738262" x="0" y="0" width="88.899" height="88.899" filterUnits="userSpaceOnUse">
      <feOffset dy="3" input="SourceAlpha"/>
      <feGaussianBlur stdDeviation="3" result="blur"/>
      <feFlood flood-opacity="0.161"/>
      <feComposite operator="in" in2="blur"/>
      <feComposite in="SourceGraphic"/>
    </filter>
  </defs>
  <g id="Grupo_1023694" data-name="Grupo 1023694" transform="translate(-333 -3549)">
    <g transform="matrix(1, 0, 0, 1, 333, 3549)" filter="url(#Trazado_738262)">
      <g id="Trazado_738262-2" data-name="Trazado 738262" transform="translate(9 6)" fill="#2ec7ca">
        <path d="M 35.44944763183594 69.89889526367188 C 30.7983570098877 69.89889526367188 26.28692817687988 68.98819732666016 22.04047775268555 67.19210052490234 C 17.93837738037109 65.45705413818359 14.25410747528076 62.97298812866211 11.09000778198242 59.80888748168945 C 7.925907611846924 56.64477920532227 5.441837787628174 52.96051788330078 3.70679759979248 48.85841751098633 C 1.91069757938385 44.61195755004883 0.999997615814209 40.10052871704102 0.999997615814209 35.44944763183594 C 0.999997615814209 30.7983570098877 1.91069757938385 26.28692817687988 3.70679759979248 22.04047775268555 C 5.441837787628174 17.93837738037109 7.925907611846924 14.25410747528076 11.09000778198242 11.09000778198242 C 14.25410747528076 7.925907611846924 17.93837738037109 5.441837787628174 22.04047775268555 3.70679759979248 C 26.28692817687988 1.91069757938385 30.7983570098877 0.999997615814209 35.44944763183594 0.999997615814209 C 40.10052871704102 0.999997615814209 44.61195755004883 1.91069757938385 48.85841751098633 3.70679759979248 C 52.96051788330078 5.441837787628174 56.64477920532227 7.925907611846924 59.80888748168945 11.09000778198242 C 62.97298812866211 14.25410747528076 65.45705413818359 17.93837738037109 67.19210052490234 22.04047775268555 C 68.98819732666016 26.28692817687988 69.89889526367188 30.7983570098877 69.89889526367188 35.44944763183594 C 69.89889526367188 40.10052871704102 68.98819732666016 44.61195755004883 67.19210052490234 48.85841751098633 C 65.45705413818359 52.96051788330078 62.97298812866211 56.64477920532227 59.80888748168945 59.80888748168945 C 56.64477920532227 62.97298812866211 52.96051788330078 65.45705413818359 48.85841751098633 67.19210052490234 C 44.61195755004883 68.98819732666016 40.10052871704102 69.89889526367188 35.44944763183594 69.89889526367188 Z" stroke="none"/>
        <path d="M 35.44944763183594 2 C 30.93291473388672 2 26.55255889892578 2.884124755859375 22.43002700805664 4.627799987792969 C 18.44712448120117 6.312423706054688 14.86970138549805 8.724536895751953 11.79711532592773 11.79711532592773 C 8.724536895751953 14.86970138549805 6.312423706054688 18.44712448120117 4.627799987792969 22.43002700805664 C 2.884124755859375 26.55255889892578 2 30.93291473388672 2 35.44944763183594 C 2 39.96596908569336 2.884124755859375 44.34633636474609 4.627799987792969 48.46885681152344 C 6.312423706054688 52.45175933837891 8.724536895751953 56.02919006347656 11.79711532592773 59.10176849365234 C 14.86970138549805 62.17435836791992 18.44712448120117 64.58647155761719 22.43002700805664 66.27109527587891 C 26.55255889892578 68.0147705078125 30.93292617797852 68.89889526367188 35.44944763183594 68.89889526367188 C 39.96596908569336 68.89889526367188 44.34633636474609 68.0147705078125 48.46885681152344 66.27109527587891 C 52.45175933837891 64.58647155761719 56.02919006347656 62.17435836791992 59.10176849365234 59.10176849365234 C 62.17435836791992 56.02919006347656 64.58647155761719 52.45175933837891 66.27109527587891 48.46885681152344 C 68.0147705078125 44.34633636474609 68.89889526367188 39.96596908569336 68.89889526367188 35.44944763183594 C 68.89889526367188 30.93292617797852 68.0147705078125 26.55255889892578 66.27109527587891 22.43002700805664 C 64.58647155761719 18.44712448120117 62.17435836791992 14.86970138549805 59.10176849365234 11.79711532592773 C 56.02919006347656 8.724536895751953 52.45175933837891 6.312423706054688 48.46885681152344 4.627799987792969 C 44.34633636474609 2.884124755859375 39.96596908569336 2 35.44944763183594 2 M 35.44944763183594 0 C 55.02762603759766 0 70.89889526367188 15.87125778198242 70.89889526367188 35.44944763183594 C 70.89889526367188 55.02762603759766 55.02762603759766 70.89889526367188 35.44944763183594 70.89889526367188 C 15.87125778198242 70.89889526367188 0 55.02762603759766 0 35.44944763183594 C 0 15.87125778198242 15.87125778198242 0 35.44944763183594 0 Z" stroke="none" fill="#16a7a9"/>
      </g>
    </g>
    <path id="Trazado_738259" data-name="Trazado 738259" d="M-4866-8054.93v21.966" transform="translate(5208 11665.968)" fill="none" stroke="#16a7a9" stroke-linecap="round" stroke-width="2"/>
    <path id="Trazado_738260" data-name="Trazado 738260" d="M-4866-8054.93v21.966" transform="translate(5278.899 11665.968)" fill="none" stroke="#16a7a9" stroke-linecap="round" stroke-width="2"/>
  </g>
</svg>
