<svg xmlns="http://www.w3.org/2000/svg" width="400.176" height="71" viewBox="0 0 400.176 71">
  <g id="Grupo_1023660" data-name="Grupo 1023660" transform="translate(-614.351 -2305)">
    <g id="Grupo_1023651" data-name="Grupo 1023651" transform="translate(1030 2305) rotate(90)">
      <path id="Trazado_738163" data-name="Trazado 738163" d="M0,120.408V15.56C0,6.966,15.877,0,35.46,0S70.919,6.966,70.919,15.56V120.408H0Z" transform="translate(0 264.032)" fill="#e22814"/>
      <path id="Trazado_738164" data-name="Trazado 738164" d="M29.316,120.408V15.56C29.316,7.886,16.656,1.51,0,.233,2,.079,4.048,0,6.144,0,25.727,0,41.6,6.966,41.6,15.56V120.408H29.314Z" transform="translate(29.316 264.032)" fill="#ba1f13"/>
      <path id="Trazado_738253" data-name="Trazado 738253" d="M35.459,0C55.042,0,70.917,6.967,70.917,15.56S55.042,31.12,35.459,31.12,0,24.154,0,15.56,15.875,0,35.459,0Z" transform="translate(0.002 368.88)" fill="#f14836"/>
      <path id="Trazado_738178" data-name="Trazado 738178" d="M35.578,6.164c-15.14,0-27.914,4.129-29.23,9.4H0C0,6.966,16.059,0,35.578,0S70.919,6.966,70.919,15.56H65.043C63.729,10.294,50.719,6.164,35.578,6.164Z" transform="translate(0.002 368.88)" fill="#f14836"/>
      <path id="Trazado_738179" data-name="Trazado 738179" d="M35.695,365.406C16.112,365.406,0,375.373,0,383.966H0V30.56C0,21.966,15.875,15,35.459,15s35.459,6.966,35.459,15.56V250.045l.027,130.248c-2.028-7.749-17.051-14.886-35.25-14.886Z" transform="translate(0.002 0.473)" fill="#e22814"/>
      <path id="Trazado_738180" data-name="Trazado 738180" d="M29.316,355.542V15.56C29.316,7.886,16.656,1.51,0,.233,2,.079,4.048,0,6.144,0,25.727,0,41.6,6.966,41.6,15.56V365.614C40.55,361.59,36,358.032,29.314,355.542Z" transform="translate(29.316 15.474)" fill="#ba1f13"/>
      <path id="Trazado_738181" data-name="Trazado 738181" d="M.043,44.848A100.532,100.532,0,0,1,.8,30.7l2.7-26.764C3.682,2.2,4.389-.039,6.13,0,7.424.031,8.241,1.4,8.623,2.639a28.36,28.36,0,0,1,.86,8.172q.057,7.657.114,15.311.054,7.219.106,14.439c.023,3.059-.054,9.241-3.688,10.551C1.911,52.593.17,48,.042,44.846Z" transform="translate(5.137 315.434)" fill="#fff" opacity="0.19"/>
      <path id="Trazado_738182" data-name="Trazado 738182" d="M.935,19.1c-.948-1.386-.955-3.185-.928-4.865Q.088,9.07.171,3.908a6.387,6.387,0,0,1,.2-1.786A3.364,3.364,0,0,1,5.771.9,6.458,6.458,0,0,1,6.991,4.91c.26,3.527,1.889,9.542.694,12.918C6.7,20.6,2.97,22.076.933,19.1Z" transform="translate(6.235 290.149)" fill="#fff" opacity="0.19"/>
    </g>
    <path id="Trazado_738254" data-name="Trazado 738254" d="M-4583.261-9387.229h21.85" transform="translate(5198.611 11693.229)" fill="none" stroke="#12263f" stroke-linecap="round" stroke-width="2"/>
    <path id="Trazado_769416" data-name="Trazado 769416" d="M-4583.261-9387.229h21.85" transform="translate(5198.611 11762.229)" fill="none" stroke="#12263f" stroke-linecap="round" stroke-width="2"/>
  </g>
</svg>
