<svg xmlns="http://www.w3.org/2000/svg" xmlns:xlink="http://www.w3.org/1999/xlink" width="77" height="77" viewBox="0 0 77 77">
  <defs>
    <filter id="Trazado_737790" x="0" y="0" width="77" height="77" filterUnits="userSpaceOnUse">
      <feOffset dy="3" input="SourceAlpha"/>
      <feGaussianBlur stdDeviation="3" result="blur"/>
      <feFlood flood-opacity="0.161"/>
      <feComposite operator="in" in2="blur"/>
      <feComposite in="SourceGraphic"/>
    </filter>
  </defs>
  <g id="Grupo_1042416" data-name="Grupo 1042416" transform="translate(-297 -13533.364)">
    <g id="Grupo_1035915" data-name="Grupo 1035915" transform="translate(52 9986.364)">
      <g transform="matrix(1, 0, 0, 1, 245, 3547)" filter="url(#Trazado_737790)">
        <path id="Trazado_737790-2" data-name="Trazado 737790" d="M29.5,0A29.5,29.5,0,1,1,0,29.5,29.5,29.5,0,0,1,29.5,0Z" transform="translate(9 6)" fill="#0ce6ea"/>
      </g>
    </g>
    <g id="estirarse" transform="translate(301.911 13537.615)">
      <g id="Grupo_1035935" data-name="Grupo 1035935" transform="translate(6.148 10.513)">
        <path id="Trazado_746564" data-name="Trazado 746564" d="M116.6,149a1.88,1.88,0,0,0-2.463-2.335,66.527,66.527,0,0,1-24.877,4.914,64.467,64.467,0,0,1-8.415-.551,1.06,1.06,0,0,0-.278,2.1,66.609,66.609,0,0,0,8.692.57,68.44,68.44,0,0,0,25.16-4.867,41.527,41.527,0,0,0-2.315,12.844,37.716,37.716,0,0,0,1.678,11.525c.2.673.422,1.33.637,1.97a67.454,67.454,0,0,0-50.321,0c.211-.626.433-1.3.637-1.969A38.97,38.97,0,0,0,66,167.693,38.425,38.425,0,0,0,64.742,150.8c-.2-.67-.427-1.344-.637-1.97a72.678,72.678,0,0,0,11.561,3.461,1.06,1.06,0,0,0,.434-2.075,70.924,70.924,0,0,1-11.711-3.552A1.87,1.87,0,0,0,61.924,149a44.638,44.638,0,0,1,2,7.756,36,36,0,0,1-1.209,15.827c-.251.826-.537,1.671-.79,2.417a1.866,1.866,0,0,0,2.463,2.335,65.424,65.424,0,0,1,49.754,0,1.775,1.775,0,0,0,.7.126A1.9,1.9,0,0,0,116.6,175c-.276-.817-.53-1.623-.76-2.426a40.309,40.309,0,0,1-1.378-6.978,33.969,33.969,0,0,1,.059-7.79A45.037,45.037,0,0,1,116.6,149Z" transform="translate(-61.824 -140.763)" fill="#12263f"/>
        <path id="Trazado_746565" data-name="Trazado 746565" d="M113.08,225.764a1.06,1.06,0,1,0-1.1-1.813l-5.774,3.5a1.06,1.06,0,0,0,0,1.814l5.782,3.484a1.06,1.06,0,0,0,1.094-1.816l-2.517-1.517h32.738l-2.517,1.517a1.06,1.06,0,1,0,1.094,1.816l5.782-3.484a1.06,1.06,0,0,0,0-1.814l-5.774-3.5a1.06,1.06,0,1,0-1.1,1.813l2.528,1.531H110.552Z" transform="translate(-99.497 -207.109)" fill="#12263f"/>
        <path id="Trazado_746566" data-name="Trazado 746566" d="M250.621,109.829v-3.058a1.06,1.06,0,0,0-2.12,0v3.058a1.06,1.06,0,1,0,2.12,0Z" transform="translate(-222.12 -105.711)" fill="#12263f"/>
        <path id="Trazado_746567" data-name="Trazado 746567" d="M199.44,121.3a1.06,1.06,0,0,0,.917-1.59l-1.529-2.648a1.06,1.06,0,0,0-1.836,1.06l1.529,2.648A1.06,1.06,0,0,0,199.44,121.3Z" transform="translate(-177.768 -115)" fill="#12263f"/>
        <path id="Trazado_746568" data-name="Trazado 746568" d="M290.388,121.3a1.059,1.059,0,0,0,.919-.53l1.529-2.648a1.06,1.06,0,0,0-1.836-1.06l-1.529,2.648a1.06,1.06,0,0,0,.917,1.59Z" transform="translate(-257.178 -114.999)" fill="#12263f"/>
        <path id="Trazado_746569" data-name="Trazado 746569" d="M248.5,370.713v3.058a1.06,1.06,0,1,0,2.12,0v-3.058a1.06,1.06,0,1,0-2.12,0Z" transform="translate(-222.12 -332.353)" fill="#12263f"/>
        <path id="Trazado_746570" data-name="Trazado 746570" d="M198.521,362.263l-1.529,2.648a1.06,1.06,0,1,0,1.836,1.06l1.529-2.648a1.06,1.06,0,1,0-1.836-1.06Z" transform="translate(-177.768 -325.552)" fill="#12263f"/>
        <path id="Trazado_746571" data-name="Trazado 746571" d="M289.86,361.875a1.06,1.06,0,0,0-.388,1.448L291,365.971a1.06,1.06,0,0,0,1.836-1.06l-1.529-2.648A1.06,1.06,0,0,0,289.86,361.875Z" transform="translate(-257.179 -325.552)" fill="#12263f"/>
      </g>
    </g>
  </g>
</svg>
